<svg width="512" height="512" viewBox="0 0 512 512" fill="none" xmlns="http://www.w3.org/2000/svg">
<path d="M292.615 60.921L293.007 61.0625C290.115 65.403 286.31 70.1543 283.237 74.5243C279.452 79.911 275.672 85.44 271.817 90.759L272.005 90.9373C272.232 91.16 272.155 91.0605 272.287 91.2673C271.945 93.0905 270.987 96.0585 271.155 97.8143L271.467 97.248L271.74 97.2523C271.92 98.1013 271.855 99.4785 271.85 100.389L272.332 100.054C273.362 100.557 273.69 102.864 274.642 103.261C276.337 103.969 282.852 106.288 283.492 107.767C287.327 109.395 295.495 107.645 298.452 104.638C300.83 102.222 303.355 97.3138 305.23 94.195C309.195 87.6003 313.535 81.2 317.7 74.718C318.547 73.3965 319.462 71.8385 320.46 70.67L320.895 70.7585C316.342 77.8415 311.522 85.0013 307.092 92.1363C295.162 111.465 283.945 131.227 273.47 151.382C267.547 162.897 261.782 174.492 256.175 186.163C253.455 191.82 250.412 198.859 247.535 204.284C244.446 211.607 240.771 218.982 237.553 226.309C229.261 245.287 221.194 264.363 213.352 283.533C207.884 297.045 202.541 310.61 197.323 324.225L192.152 338.028C191.754 339.09 190.118 343.593 189.631 344.298L189.314 344.245C187.113 349.375 184.594 357.373 182.587 362.828C176.003 380.93 169.603 399.1 163.385 417.333C162.441 420.073 157.131 436.68 156.197 437.943C155.228 438.16 154.324 438.248 153.596 438.898C153.106 439.753 153.121 440.538 153.562 441.415L154.801 441.6C155.263 442.4 154.515 443.573 154.154 444.44C154.009 443.978 153.918 443.685 153.738 443.233C152.725 442.845 152.616 442.72 151.742 443.04C151.146 443.81 150.419 444.573 149.623 445.14C149.896 443.293 150.92 441.445 151.488 439.603C154.561 429.715 157.825 419.885 161.277 410.123C162.222 407.42 167.118 394.208 166.864 392.905C166.871 392.693 167.261 390.82 167.327 390.485C160.412 389.333 149.746 391.318 142.967 393.248C140.028 394.085 137.342 395.32 134.242 395.78C138.444 392.573 147.689 387.018 152.556 385.053C154.722 384.178 158.284 383.37 160.771 382.538C158.841 381.375 156.167 380.265 154.144 379.138C149.999 376.828 145.622 374.035 142.278 370.67C146.228 371.385 162.342 376.895 165.109 374.088C165.75 371.698 165.009 368.233 164.484 365.823C162.125 354.998 156.913 344.973 151.274 335.53C149.295 332.218 146.977 329.03 145.217 325.628L144.993 325.19C152.141 329.603 159.766 335.448 164.731 342.245C165.07 342.71 165.424 342.713 165.892 342.673C166.382 341.768 166.659 338.443 166.793 337.218C167.906 326.273 169.587 315.39 171.828 304.617C177.493 277.315 185.847 250.638 196.765 224.977C198.574 220.634 202.947 210.012 205.155 206.186C205.949 204.077 208.023 199.921 209.058 197.753C212.229 191.187 215.497 184.668 218.863 178.2C234.283 148.424 251.537 119.635 270.53 91.9988C275.165 85.0963 279.922 78.2755 284.8 71.5398C287.06 68.39 290.157 63.8428 292.615 60.921Z" fill="#B42446"/>
<path d="M292.615 60.921L293.008 61.0625C290.115 65.403 286.31 70.1543 283.238 74.5243C279.453 79.911 275.673 85.44 271.818 90.759L272.005 90.9373C272.233 91.16 272.155 91.0605 272.288 91.2673C271.945 93.0905 270.988 96.0585 271.155 97.8143L271.468 97.248L271.74 97.2523C271.92 98.1013 271.855 99.4785 271.85 100.389L272.333 100.054C273.363 100.557 273.69 102.864 274.643 103.261C276.338 103.969 282.853 106.288 283.493 107.767C287.328 109.395 295.495 107.645 298.453 104.638C300.83 102.222 303.355 97.3138 305.23 94.195C309.195 87.6003 313.535 81.2 317.7 74.718C318.548 73.3965 319.463 71.8385 320.46 70.67L320.895 70.7585C316.343 77.8415 311.523 85.0013 307.093 92.1363C295.163 111.465 283.945 131.227 273.47 151.382C267.548 162.897 261.783 174.492 256.175 186.163C253.455 191.82 250.413 198.859 247.535 204.284L247.17 204.136C258.173 180.402 269.763 156.608 282.46 133.734C283.783 131.351 284.588 128.946 286.213 126.672C285.998 125.847 284.525 124.985 284.303 123.736C283.5 119.202 282.615 116.144 278.508 113.308C278.213 113.303 276.04 113.272 276.04 113.271C272.88 111.33 272.678 109.929 268.748 109.783C265.613 109.667 263.788 110.967 260.913 111.998C260.698 112.068 258.925 111.904 258.53 111.868C258.178 112.283 257.825 112.846 257.843 113.414C257.89 115.074 254.663 117.269 254.153 118.075C253.133 119.687 248.428 125.966 248.537 127.431C251.148 129.887 250.638 131.496 252.168 133.501C254.908 137.092 256.08 139.303 258.145 143.164C260.228 146.981 262.213 150.85 264.095 154.769C264.603 155.805 265.928 158.33 266.208 159.283L265.943 159.525C265.108 158.98 264.333 156.564 263.88 155.551C261.055 149.236 257.693 143.135 254.193 137.171C252.78 134.766 250.273 133.033 249.488 130.244C249.273 129.521 248.612 129.001 248.288 128.114C246.764 129.347 242.173 137.342 240.872 139.527C230.788 156.576 221.342 173.995 212.555 191.747C210.645 195.616 207.727 201.847 205.676 205.891C205.503 205.989 205.329 206.088 205.155 206.186C205.949 204.077 208.023 199.921 209.058 197.753C212.229 191.187 215.497 184.668 218.863 178.2C234.283 148.424 251.538 119.635 270.53 91.9988C275.165 85.0963 279.923 78.2755 284.8 71.5398C287.06 68.39 290.158 63.8428 292.615 60.921Z" fill="#DA4D28"/>
<path d="M166.864 392.905C167.118 394.207 162.222 407.42 161.277 410.122C157.825 419.885 154.561 429.715 151.488 439.602C150.92 441.445 149.896 443.292 149.623 445.14C150.419 444.572 151.146 443.81 151.742 443.04C152.616 442.72 152.725 442.845 153.738 443.232C153.918 443.685 154.009 443.977 154.154 444.44C153.854 445.132 152.83 448.087 152.677 448.812C152.013 451.972 147.258 463.28 147.845 465.477C143.304 478.495 139.653 491.975 135.414 505.102C134.298 508.56 131.238 508.742 130.676 512H128.735C129.445 507.27 132.277 498.61 133.767 493.82L142.104 467.372C150.07 442.7 157.77 417.17 166.864 392.905Z" fill="#390071"/>
<path d="M272.795 162.657C273.108 162.575 273.225 162.466 273.515 162.298C275.555 158.627 276.97 154.99 278.875 151.252L293.5 122.683C293.84 122.01 295.208 119.754 295.683 119.291C297.063 117.944 296.598 117.109 297.225 116.078C297.865 116.03 298.435 116.847 299.198 117.439C300.665 117.418 300.61 117.141 301.903 116.617L302.62 116.177L302.915 116.375L302.885 117.171L303.215 117.325L303.573 117.106L303.7 116.461L304.163 116.283L304.288 116.878C306.22 117.052 308.21 117.27 310.13 117.535C310.175 117.541 312.103 119.604 312.523 119.814C313.663 120.383 315.18 120.478 316.333 121.066C317.963 121.897 319.408 123.2 321.015 124.001C322.283 124.633 324.438 124.474 325.783 124.974C326.528 125.268 329.13 128.207 329.758 128.525C331.445 129.379 333.555 128.729 334.948 130.716C335.445 131.426 336.375 132.511 337.123 133.001C338.02 132.924 338.315 132.829 339.155 133.263C339.975 134.241 339.633 135.138 339.9 135.332L339.583 136.097C341.413 137.819 338.023 138.911 339.158 141.428L339.793 141.983C340.675 141.579 341.583 141.031 342.518 141.082L342.85 141.422C342.783 143.271 339.508 145.847 338.198 147.161C332.718 152.653 325.88 155.696 319.513 159.806C318.635 160.371 316.923 159.854 316.088 160.664C317.138 161.097 318.773 160.798 319.788 160.347C323.063 159.938 325.993 158.987 329.223 158.343C332.145 159.125 339.888 153.377 342.115 156.83C343.733 159.339 337.158 170.235 337.618 172.281C332.895 185.479 323.46 198.175 311.465 205.257C308.77 206.849 305.738 208.018 303.165 209.636C305.978 209.337 308.695 208.744 311.448 208.1C312.69 208.539 317.67 206.298 318.948 205.562C323.463 208.899 318.458 212.81 316.383 215.556C315.148 217.191 309.11 223.105 308.87 224.203C304.305 229.454 297.173 231.475 291.92 235.238C295.543 234.825 298.268 233.876 301.623 233.331C303.928 233.911 308.38 230.812 308.983 231.88C310.043 233.759 306.81 239.223 307.035 240.758L307.268 240.778C304.718 248.5 299.91 259.52 296.615 266.912C283.61 296.107 264.988 321.547 235.783 336.027C224.63 341.557 220.91 342.785 208.566 345.022C227.305 349.47 247.276 344.317 261.728 331.792C263.515 330.242 265.068 328.47 266.81 326.915C265.355 330.675 264.05 332.657 261.995 336.015C255.313 346.935 247.587 354.597 236.688 361.272C233.347 363.317 226.838 366.092 224.29 368.042C234.527 368.875 241.166 366.98 249.003 360.28C249.139 360.162 249.273 360.045 249.405 359.925C248.824 360.825 247.57 362.867 246.932 363.562C246.376 363.695 246.368 363.61 246.004 364.12C242.556 369.062 238.845 373.125 234.116 376.875C230.602 379.662 226.772 381.575 222.743 383.513C214.383 387.535 205.427 388.875 196.32 389.878C192.696 390.275 185.99 389.405 183.02 390.057C182.728 390.885 182.842 390.945 182.115 391.283C181.344 391.07 181.639 391.052 180.906 391.237C180.214 392.842 181.585 392.875 180.996 394.365C180.898 393.725 180.998 393.935 180.678 393.408L180.132 393.943L179.869 393.872L179.421 392.97C179.556 391.613 182.283 384.282 182.892 382.495C187.226 369.595 191.835 356.787 196.716 344.085L196.383 343.735C197.865 338.33 202.467 326.942 204.615 321.455L216.243 291.49C227.206 263.557 238.832 235.888 251.113 208.507C257.568 194.031 265.328 176.53 272.795 162.657Z" fill="#B42446"/>
<path d="M351.073 0H358.23C360.62 1.3331 363.115 2.51325 365.345 4.0568C373.308 9.5245 379.003 17.6549 381.418 27.0145C387.24 49.5775 380.568 73.2602 371.135 93.854C369.933 96.4795 367.113 103.235 365.605 105.287L365.165 105.212C362.763 110.324 359.593 115.307 356.893 120.281C355.993 121.935 354.538 124.377 353.558 125.984C352.348 127.145 350.86 127.106 349.76 128.501C349.258 129.139 346.343 132.379 345.87 132.519C343.088 133.349 343.1 133.66 340.923 135.487C340.508 135.321 340.738 135.431 340.25 135.126L339.9 135.332C339.633 135.138 339.975 134.241 339.155 133.263C338.315 132.829 338.02 132.924 337.123 133.001C336.375 132.511 335.445 131.426 334.948 130.716C333.555 128.729 331.445 129.379 329.758 128.525C329.13 128.207 326.528 125.268 325.783 124.974C324.438 124.474 322.283 124.633 321.015 124.001C319.408 123.2 317.963 121.897 316.333 121.066C315.18 120.478 313.663 120.383 312.523 119.814C312.103 119.604 310.175 117.541 310.13 117.535C308.21 117.271 306.22 117.052 304.288 116.878L304.163 116.283L303.7 116.462L303.573 117.106L303.215 117.325L302.885 117.171L302.915 116.376L302.62 116.177L301.903 116.617C302.065 115.64 302.168 116.049 301.823 115.303L301.69 115.53C301.633 113.355 301.33 110.632 301.835 108.499C302.873 104.109 312.425 91.9195 312.433 89.0352C312.723 88.112 315.793 83.4643 316.573 82.1675C324.8 68.4878 333.855 55.865 343.31 43.0267L343.813 41.8975L343.338 41.2673C338.65 47.4113 333.898 52.873 329.148 59.225C327.285 61.689 325.48 64.1947 323.73 66.74C323.263 67.4102 321.343 70.2812 320.895 70.7585L320.46 70.67C319.463 71.8385 318.548 73.3965 317.7 74.718C313.535 81.2 309.195 87.6002 305.23 94.195C303.355 97.3137 300.83 102.222 298.453 104.637C295.495 107.644 287.328 109.395 283.493 107.767C282.853 106.288 276.338 103.969 274.643 103.261C273.69 102.864 273.363 100.557 272.333 100.054L271.85 100.389C271.855 99.4785 271.92 98.1013 271.74 97.2523L271.468 97.248L271.155 97.8142C270.988 96.0585 271.945 93.0905 272.288 91.2673C272.155 91.0605 272.233 91.16 272.005 90.9372L271.818 90.759C275.673 85.44 279.453 79.911 283.238 74.5242C286.31 70.1542 290.115 65.403 293.008 61.0625L292.615 60.921C300.588 49.9708 309.06 39.3945 318.008 29.226C326.35 19.6854 335.585 9.22653 346.478 2.46828C347.918 1.5738 349.568 0.892995 351.073 0Z" fill="#EF7A25"/>
<path d="M343.338 41.2673C344.468 39.196 347.775 35.7825 349.625 34.346L349.77 34.4428C349.025 35.7493 344.378 42.0775 343.31 43.0268L343.813 41.8975L343.338 41.2673Z" fill="#F5CBB3"/>
<path d="M196.383 343.735L196.716 344.085C191.835 356.787 187.226 369.595 182.892 382.495C182.283 384.282 179.556 391.612 179.421 392.97L179.869 393.872L180.132 393.942L180.678 393.407C180.998 393.935 180.898 393.725 180.996 394.365C181.585 392.875 180.214 392.842 180.906 391.237C181.639 391.052 181.344 391.07 182.115 391.282C182.842 390.945 182.728 390.885 183.02 390.057C185.99 389.405 192.696 390.275 196.32 389.877C205.427 388.875 214.383 387.535 222.743 383.512C226.772 381.575 230.602 379.662 234.116 376.875C238.845 373.125 242.556 369.062 246.004 364.12C246.368 363.61 246.376 363.695 246.932 363.562C235.882 382.37 211.971 390.32 191.235 390.455C188.422 390.472 185.586 390.407 182.774 390.35C184.005 392.442 186.062 394.725 187.511 396.81C190.509 401.122 191.523 405.802 192.817 410.8C187.064 403.577 186.38 399.85 178.346 394.615C180.23 387.785 183.692 378.567 186.131 371.742C189.31 362.847 192.766 352.395 196.383 343.735Z" fill="#790180"/>
<path d="M339.9 135.332L340.25 135.126C340.737 135.431 340.507 135.321 340.922 135.487C343.1 133.66 343.087 133.349 345.87 132.519C346.342 132.379 349.257 129.139 349.76 128.501C350.86 127.106 352.347 127.145 353.557 125.984C354.537 124.377 355.992 121.935 356.892 120.281C359.592 115.307 362.762 110.324 365.165 105.212L365.605 105.287C363.932 109.208 361.42 113.376 359.287 117.128C354.47 125.599 349.437 134.223 343.56 142.007C339.415 147.497 334.042 151.709 328.192 155.239C325.31 156.95 322.355 158.117 319.787 160.347C318.772 160.798 317.137 161.098 316.087 160.664C316.922 159.854 318.635 160.371 319.512 159.806C325.88 155.696 332.717 152.653 338.197 147.161C339.507 145.847 342.782 143.271 342.85 141.423L342.517 141.082C341.582 141.031 340.675 141.579 339.792 141.984L339.157 141.428C338.022 138.911 341.412 137.819 339.582 136.098L339.9 135.332Z" fill="#DF411C"/>
<path d="M154.154 444.44C154.515 443.573 155.263 442.4 154.801 441.6L153.562 441.415C153.121 440.538 153.106 439.752 153.596 438.897C154.324 438.247 155.228 438.16 156.197 437.943C157.131 436.68 162.441 420.072 163.385 417.332C169.603 399.1 176.003 380.93 182.587 362.828C184.594 357.373 187.113 349.375 189.314 344.245L189.631 344.297C186.458 354.462 181.845 365.78 178.276 375.858L158.915 431.955C155.204 442.942 151.168 454.378 147.845 465.478C147.258 463.28 152.013 451.973 152.677 448.812C152.83 448.087 153.854 445.133 154.154 444.44Z" fill="#790180"/>
<path d="M312.432 89.0352C312.425 91.9195 302.872 104.109 301.835 108.499C301.33 110.632 301.632 113.355 301.69 115.53L301.822 115.303C302.167 116.049 302.065 115.64 301.902 116.617C300.61 117.141 300.665 117.419 299.197 117.439C298.435 116.847 297.865 116.03 297.225 116.078C296.597 117.109 297.062 117.945 295.682 119.291C295.207 119.754 293.84 122.01 293.5 122.683L278.875 151.253C276.97 154.99 275.555 158.627 273.515 162.298C273.225 162.466 273.107 162.576 272.795 162.658C273.785 160.229 275.705 156.55 276.9 154.135C280.327 147.288 283.852 140.489 287.475 133.742C294.18 120.985 300.66 108.327 308.187 96.0035C309.61 93.6733 310.912 91.3137 312.432 89.0352Z" fill="#DF411C"/>
<path d="M311.448 208.1C313.853 207.152 316.295 206.205 318.633 205.098C321.263 203.851 323.888 202.239 326.495 200.997C323.403 208.024 314.888 219.249 308.87 224.203C309.11 223.106 315.148 217.191 316.383 215.556C318.458 212.811 323.463 208.899 318.948 205.562C317.67 206.298 312.69 208.54 311.448 208.1Z" fill="#DF411C"/>
<path d="M329.223 158.343C332.175 157.388 335.078 156.462 337.958 155.294C340.33 154.331 342.645 153.032 344.983 152.083C343.605 157.121 340.05 167.643 337.618 172.281C337.158 170.235 343.733 159.339 342.115 156.83C339.888 153.377 332.145 159.125 329.223 158.343Z" fill="#DF411C"/>
<path d="M301.623 233.331C304.773 232.19 307.953 231.132 311.158 230.16C310.533 231.928 308.015 239.253 307.268 240.778L307.035 240.758C306.81 239.223 310.043 233.759 308.983 231.88C308.38 230.812 303.928 233.911 301.623 233.331Z" fill="#DF411C"/>
</svg>
