<svg width="855" height="512" viewBox="0 0 855 512" fill="none" xmlns="http://www.w3.org/2000/svg">
<path d="M9.54505 335.135C10.9616 334.979 13.6215 334.891 14.8841 335.441C23.426 339.159 32.7689 344.943 41.0039 349.398C233.301 452.096 458.252 475.23 667.439 413.815C686.747 408.173 705.834 401.811 724.667 394.741C731.192 392.273 760.541 379.113 765.835 381.288C793.793 392.779 759.155 411.614 747.858 418.993C736.669 426.187 725.18 432.905 713.424 439.127C670.741 461.438 625.49 478.443 578.674 489.767C467.102 517.775 349.989 514.721 240.03 480.938C163.803 457.483 92.8636 419.444 31.1581 368.937C25.21 364.052 19.4081 359.078 13.5554 354.087C7.90076 349.266 -1.28065 340.623 9.54505 335.135Z" fill="#FE9900"/>
<path d="M273.769 10.5072C280.612 10.0215 308.782 9.28652 313.74 12.4588C316.503 14.2265 318.092 17.6143 319.155 20.59C321.842 28.1072 323.482 36.1779 325.442 43.9181L335.545 83.8278L367.531 209.887C368.97 205.15 370.458 197.897 371.628 192.938L378.956 161.849L401.8 64.8446L408.126 38.0048C409.654 31.5296 412.387 12.6985 420.14 11.4982C429.65 10.0257 451.43 9.05977 460.427 12.2658C466.104 14.2888 469.027 31.739 470.496 37.9719L477.694 68.4724L500.016 163.2C503.339 177.296 507.761 198.881 511.781 212.217C513.931 201.681 517.855 188.048 520.607 177.387L537.172 113.201L552.352 54.4364C555.032 44.0641 557.654 33.3965 560.614 23.1341C561.424 20.3317 563.377 14.6257 565.857 13.3153C567.427 12.2277 571.556 10.7008 573.351 10.6885C580.548 10.6392 603.117 8.71923 608.469 12.3624C613.579 15.837 602.888 44.1159 601.189 49.4282C597.348 63.3662 591.691 79.9964 587.328 94.0044L559.641 182.824L546.09 226.28C543.213 235.494 540.52 246.085 536.099 254.694C532.05 262.582 514.495 259.652 507.009 260.175C502.688 260.477 491.763 260.35 488.657 257.989C482.344 253.185 480.023 236.838 478.17 229.094L469.06 190.989L438.739 64.9931L409.253 188.425L399.953 227.463C398.178 234.933 396.574 242.468 394.311 249.802C393.014 254.876 388.824 259.539 383.116 259.627C372.336 259.791 359.34 260.645 348.716 259.203C340.634 258.106 338.327 246.918 336.304 240.501C334.74 235.543 333.135 230.099 331.572 224.963L315.625 172.51L285.718 74.2183C280.621 57.4621 275.478 40.6962 270.534 23.8993C268.916 18.4046 268.125 13.5341 273.769 10.5072Z" fill="#26303F"/>
<path d="M133.645 3.93308C150.234 2.70951 169.215 4.13559 185.201 8.26343C204.368 13.2128 220.593 23.6898 230.443 41.1757C242.606 62.7682 242.55 85.6646 242.552 109.632L242.54 159.776C242.535 174.186 242.351 187.794 244.115 202.141C245.222 214.237 252.154 224.236 256.444 235.212C257.998 239.187 256.223 243.18 253.081 245.71C246.847 250.455 238.572 256.177 231.786 259.925C217.598 267.762 204.107 236.615 199.271 227.664C196.112 231.495 192.691 235.103 189.033 238.461C167.393 258.421 140.77 267.631 111.461 266.199C88.553 265.08 71.5712 258.381 56.1119 241.474C40.4237 222.073 36.7282 198.007 41.4257 173.797C45.1388 154.661 57.5217 137.958 73.9228 127.601C110.746 104.35 156.126 111.959 196.205 120.508C196.27 99.6918 198.73 66.2383 179.732 52.375C162.551 40.4375 136.799 41.2315 117.136 43.9022C98.1175 46.4852 81.7101 54.2607 63.7083 59.7926C59.5177 61.0803 55.9749 56.8074 56.2651 52.2732C56.7272 45.0397 54.3359 32.6574 59.0927 26.4534C75.6558 12.6073 114.264 5.41301 133.645 3.93308ZM145.189 227.697C163.323 223.63 177.566 216.979 188.45 200.88C197.323 187.754 196.804 167.574 196.845 152.196C182.039 148.745 155.505 144.417 140.545 145.813C125.386 146.546 109.429 149.001 98.6823 160.852C85.1556 175.769 85.3376 206.901 100.805 220.4C112.959 231.007 130.292 230.349 145.189 227.697Z" fill="#26303F"/>
<path d="M720.755 3.10698C722.149 3.03459 723.548 3.00468 724.942 3.01726C743.8 3.04748 781.916 8.10448 796.87 21.6536C803.153 27.702 800.957 36.5058 801.379 44.0199C802.673 63.5819 785.519 52.2686 775.654 48.6846C749.695 39.2519 680.218 30.6498 679.604 73.6103C678.944 97.5216 707.3 105.87 725.961 111.577C768.456 124.568 816.216 135.286 815.377 190.201C815.256 209.279 807.374 227.487 793.534 240.629C771.383 262.042 739.362 267.826 709.65 267.388C688.496 266.329 653.507 260.929 635.418 247.715C632.433 245.756 629.611 239.53 629.986 236.068C630.538 230.985 627.16 211.465 635.881 212.398C646.322 213.517 656.96 219.859 667.464 222.788C697.314 231.116 769.012 239.234 768.473 191.049C768.173 170.135 745.178 163.259 728.812 157.709C704.123 149.338 675.346 144.518 655.227 126.739C642.469 115.033 633.431 97.661 632.867 80.2137C631.226 29.1325 675.609 5.28122 720.755 3.10698Z" fill="#26303F"/>
<path d="M778.017 318.618C790.925 317.1 840.985 318.683 848.011 331.084C854.215 342.026 847.611 375.096 844.146 387.436C836.714 413.906 823.948 441.647 804.794 461.768C801.137 465.67 791.618 476.139 785.431 474.261C778.697 472.217 785.552 459.519 787.214 455.021C789.79 448.044 792.812 440.996 795.284 433.819C801.446 416.748 813.365 384.137 810.133 366.689C809.407 362.75 807.758 359.714 804.376 357.471C789.744 347.767 742.848 351.856 724.721 353.884C717.081 354.739 705.818 356.886 698.507 356.652C696.595 356.59 694.496 356.184 692.938 355.008C692.049 354.332 691.51 353.389 691.44 352.266C691.306 350.117 693.013 347.59 694.374 346.042C697.681 342.274 702.545 339.847 706.907 337.49C728.775 325.669 753.285 320.016 778.017 318.618Z" fill="#FE9900"/>
</svg>
