<svg width="512" height="512" viewBox="0 0 512 512" fill="none" xmlns="http://www.w3.org/2000/svg">
<path d="M250.522 0H261.44C263.275 0.982155 266.737 1.16519 268.842 1.87532C277.305 4.72785 284.76 9.65655 292.442 14.0618C300.88 18.833 309.285 23.6581 317.66 28.5368L396.422 73.9252L443.142 100.852C449.287 104.407 455.49 107.867 461.592 111.491C466.965 114.68 471.68 118.207 475.375 123.328C476.405 124.756 477.227 126.373 478.462 127.611C484.287 137.258 484.055 147.52 484.05 158.28L484.042 178.51L484.04 241.484L484.042 325.962L484.05 349.46C484.055 357.287 484.515 366.233 482.667 373.725C481.697 377.5 480.242 381.135 478.337 384.54C473.59 392.233 468.82 396.503 460.977 401.033C453.81 405.173 446.612 409.3 439.44 413.432L390.187 441.802L321.747 481.225L292.577 498.038C286.135 501.763 279.91 505.5 273.167 508.688C271.235 509.6 263.472 511.423 262.712 512H249.301C247.688 511.18 243.68 510.347 241.78 509.707C234.883 507.385 228.663 503.365 222.403 499.712L201.166 487.36L123.561 442.7L71.4899 412.717C68.2894 410.867 65.0599 409.01 61.8504 407.175C50.1304 400.48 40.5377 396.228 33.4932 384.035C27.5307 372.528 28.1299 364.965 28.1404 352.57L28.1472 330.965L28.1489 260.87L28.1552 185.079L28.1454 160.532C28.1432 148.48 27.4714 138.686 33.6919 127.675C40.9094 114.899 54.8599 108.909 67.1707 101.856L106.992 78.9342L194.253 28.6793L218.869 14.4274C226.935 9.7162 235.101 4.3477 244.092 1.64264C246.069 1.04778 248.704 0.860663 250.522 0Z" fill="#FEFEFE"/>
<path d="M250.522 0H261.44C263.275 0.982155 266.737 1.16519 268.842 1.87532C277.305 4.72785 284.76 9.65655 292.442 14.0618C300.88 18.833 309.285 23.6581 317.66 28.5368L396.422 73.9252L443.142 100.852C449.287 104.407 455.49 107.867 461.592 111.491C466.965 114.68 471.68 118.207 475.375 123.328C476.405 124.756 477.227 126.373 478.462 127.611C471.07 132.058 463.21 136.416 455.707 140.727L412.835 165.378L395.155 175.62C393.69 176.476 388.25 179.811 387.087 180.217L386.942 180.02C385.13 177.54 383.412 174.337 381.652 171.723C378.827 167.526 375.807 163.476 372.575 159.583C349.21 131.272 316.332 112.444 280.09 106.621C240.513 100.245 200.024 109.84 167.516 133.297C134.958 156.768 113.064 192.218 106.655 231.84C102.165 259.587 105.485 288.038 116.243 314.008C119.102 320.88 121.603 325.185 124.87 331.59C124.26 331.735 123.879 331.818 123.319 332.135C116.417 336.058 109.514 340.062 102.637 344.027L62.4284 367.177L42.5854 378.6C40.8852 379.58 34.5824 383.088 33.4932 384.035C27.5307 372.528 28.1299 364.965 28.1404 352.57L28.1472 330.965L28.1489 260.87L28.1552 185.079L28.1454 160.532C28.1432 148.48 27.4714 138.686 33.6919 127.675C40.9094 114.899 54.8599 108.909 67.1707 101.856L106.992 78.9342L194.253 28.6793L218.869 14.4274C226.935 9.7162 235.101 4.3477 244.092 1.64264C246.069 1.04778 248.704 0.860663 250.522 0Z" fill="#B14796"/>
<path d="M387.365 331.267C408.217 343.775 430.045 356.058 451.15 368.283L468.807 378.515C470.382 379.43 477.832 383.48 478.337 384.54C473.59 392.233 468.82 396.503 460.977 401.033C453.81 405.173 446.612 409.3 439.44 413.432L390.187 441.802L321.747 481.225L292.577 498.038C286.135 501.763 279.91 505.5 273.167 508.688C271.235 509.6 263.472 511.423 262.712 512H249.301C247.688 511.18 243.68 510.347 241.78 509.707C234.883 507.385 228.663 503.365 222.403 499.712L201.166 487.36L123.561 442.7L71.4899 412.717C68.2894 410.867 65.0599 409.01 61.8504 407.175C50.1304 400.48 40.5377 396.228 33.4932 384.035C34.5824 383.088 40.8852 379.58 42.5854 378.6L62.4284 367.177L102.637 344.027C109.514 340.062 116.417 336.058 123.319 332.135C123.879 331.818 124.26 331.735 124.87 331.59C129.76 339.507 133.639 345.417 139.651 352.677C160.731 378.042 189.518 395.827 221.634 403.332C260.425 412.39 301.225 405.777 335.172 384.932C351.99 374.562 366.63 361.023 378.277 345.065C380.265 342.398 382.135 339.64 383.877 336.802C384.737 335.43 386.467 332.447 387.365 331.267Z" fill="#792379"/>
<path d="M478.463 127.611C484.288 137.258 484.055 147.52 484.05 158.28L484.043 178.51L484.04 241.484L484.043 325.962L484.05 349.46C484.055 357.287 484.515 366.233 482.668 373.725C481.698 377.5 480.243 381.135 478.338 384.54C477.833 383.48 470.383 379.43 468.808 378.515L451.15 368.283C430.045 356.058 408.218 343.775 387.365 331.267C387.28 331.127 324.013 293.757 321.495 293.027C316.878 290.712 311.213 287.225 306.643 284.578L280.32 269.323L266.08 261.105C263.973 259.89 258.375 256.837 256.77 255.292C261.085 252.512 267.598 249.04 272.248 246.366L306.835 226.455C311.255 223.908 317.13 220.816 321.323 218.23C336.498 209.246 351.765 200.417 367.118 191.742C372.943 188.392 381.73 183.793 387.088 180.217C388.25 179.811 393.69 176.476 395.155 175.62L412.835 165.378L455.708 140.727C463.21 136.416 471.07 132.058 478.463 127.611Z" fill="#962C88"/>
<path d="M423.012 220.242L438.025 220.245L438.067 232.413C441.47 232.184 446.757 232.312 450.215 232.443L450.212 247.405C446.9 247.191 441.495 247.359 438.055 247.35L438.047 265.538L450.225 265.555C450.25 270.555 450.24 275.557 450.192 280.557L438.08 280.53L438.022 292.743L423.052 292.715C422.995 288.68 423.035 284.565 423.03 280.522C417.007 280.565 410.982 280.565 404.957 280.522C404.75 284.285 404.835 288.94 404.81 292.743L389.902 292.715C389.76 288.723 389.83 284.54 389.845 280.53C385.815 280.553 381.787 280.553 377.757 280.533C377.717 275.535 377.705 270.54 377.72 265.543L389.902 265.525C389.637 259.87 389.827 253.053 389.85 247.332C386.515 247.529 381.205 247.369 377.747 247.381C377.682 242.399 377.725 237.347 377.722 232.36L389.84 232.379L389.812 220.243C394.82 220.217 399.83 220.219 404.837 220.249C404.832 224.303 404.857 228.358 404.915 232.412C409.835 232.119 418.002 232.304 423.03 232.419L423.012 220.242Z" fill="#FEFEFE"/>
<path d="M404.912 247.316C409.895 247.739 417.965 247.525 423.037 247.32L423.045 265.555C417.125 265.432 410.822 265.535 404.872 265.527C404.817 259.457 404.83 253.385 404.912 247.316Z" fill="#962C88"/>
<path d="M190.656 293.4C182.702 279.495 179.385 263.415 181.185 247.496C183.431 227.565 193.552 209.358 209.295 196.929C225.085 184.439 245.224 178.799 265.205 181.273C283.792 183.534 300.86 192.672 313.05 206.887C316.902 211.369 318.172 214.266 321.195 218.072L321.322 218.23C317.13 220.816 311.255 223.908 306.835 226.455L272.247 246.366C267.597 249.04 261.085 252.513 256.77 255.293L215.783 278.885C207.62 283.59 198.656 288.518 190.656 293.4Z" fill="#B14796"/>
<path d="M256.77 255.292C258.375 256.837 263.972 259.89 266.08 261.105L280.32 269.323L306.642 284.578C311.212 287.225 316.877 290.712 321.495 293.027C315.73 303.865 305.462 314.07 295.027 320.388C277.805 330.79 257.145 333.895 237.623 329.017C217.189 323.892 201.41 311.262 190.656 293.4C198.656 288.517 207.62 283.59 215.783 278.885L256.77 255.292Z" fill="#792379"/>
</svg>
