<svg width="512" height="512" viewBox="0 0 512 512" fill="none" xmlns="http://www.w3.org/2000/svg">
<path d="M29.9644 0H256H482.925C482.358 4.69562 482.145 9.2932 481.803 13.9998L479.92 40.7463L473.943 125.123L457.368 357.628L453.243 415.76L451.563 439.938C451.383 442.285 451.313 445.867 451.05 447.997C447.793 449.755 436.695 453.12 432.495 454.492L397.495 465.943L288.425 501.853L266.345 509.12C265.048 509.547 258.65 511.5 257.943 512H255.97H255.513C254.3 511.215 245.677 508.655 243.798 508.05L220.053 500.245L117.55 466.555L79.6479 454.082C76.0549 452.9 64.6599 448.888 61.6199 448.32C60.7266 440.423 60.3356 430.458 59.7609 422.378L55.7429 365.503L44.7766 211.069L34.7144 69.5025L31.7189 27.272C31.0756 18.3946 30.1996 8.86932 29.9644 0Z" fill="#E7E7E9"/>
<path d="M256 0H482.925C482.357 4.69562 482.145 9.2932 481.802 13.9998L479.92 40.7463L473.942 125.123L457.367 357.628L453.242 415.76L451.562 439.938C451.382 442.285 451.312 445.867 451.05 447.997C447.792 449.755 436.695 453.12 432.495 454.492L397.495 465.943L288.425 501.853L266.345 509.12C265.047 509.547 258.65 511.5 257.942 512H255.97C256.497 509.53 256.05 498.74 256.125 496.283C256.317 489.993 255.682 435.5 256.45 433.82L379.457 392.652C380.335 378.177 381.335 363.707 382.452 349.247L388.877 258.395C389.905 243.173 391.645 226.089 392.065 211.016C376.71 210.802 360.89 210.99 345.51 210.99L256.077 210.991C256.317 207.854 256.132 202.928 256.127 199.602L256.112 178.148L256.125 151.224C256.135 146.52 256.305 140.648 256.087 136.012L397.817 136.034C397.78 132.882 398.162 128.895 398.395 125.743L399.31 112.565L401.942 76.0137C385.385 75.8115 368.482 75.9893 351.902 75.9895L256.08 75.9912C256.305 72.9322 256.132 68.5342 256.127 65.321L256.117 45.0713L256.112 16.7647C256.11 11.3381 256.225 5.39245 256 0Z" fill="#1572B6"/>
<path d="M29.9644 0H256C256.225 5.39245 256.11 11.3381 256.113 16.7647L256.118 45.0713L256.128 65.321C256.133 68.5342 256.305 72.9322 256.08 75.9912L110.644 75.9877L124.473 271.057L256.09 271.013C256.438 279.318 256.115 290.333 256.115 298.828L256.118 354.825C256.12 356.213 256.01 369.715 256.193 370.152C253.573 369.822 242.157 365.708 238.917 364.638L207.271 354.155C201.847 352.355 195.631 350.133 190.207 348.538C189.797 343.2 189.569 337.205 189.074 331.995L128.933 331.97C129.497 336.585 129.538 341.555 129.954 346.225C131.311 361.48 131.742 377.465 133.206 392.652C174.319 405.835 215.376 420.458 256.45 433.82C255.683 435.5 256.318 489.993 256.125 496.283C256.05 498.74 256.498 509.53 255.97 512H255.513C254.3 511.215 245.677 508.655 243.798 508.05L220.053 500.245L117.55 466.555L79.6479 454.082C76.0549 452.9 64.6599 448.888 61.6199 448.32C60.7266 440.423 60.3356 430.458 59.7609 422.378L55.7429 365.503L44.7766 211.069L34.7144 69.5025L31.7189 27.272C31.0756 18.3946 30.1996 8.86932 29.9644 0Z" fill="#33A9DC"/>
<path d="M256.09 271.013L327.315 271.022C327.063 277.51 326.505 284.002 326.068 290.485L323.143 332.383C322.803 337.423 322.203 343.397 322.023 348.362L278.608 362.785C272.003 364.98 262.608 368.46 256.193 370.152C256.01 369.715 256.12 356.213 256.118 354.825L256.115 298.828C256.115 290.333 256.438 279.318 256.09 271.013Z" fill="#1572B6"/>
<path d="M175.2 136.024L256.087 136.012C256.305 140.648 256.135 146.52 256.125 151.224L256.112 178.148L256.127 199.602C256.132 202.928 256.317 207.854 256.077 210.991L180.563 210.993C180.314 203.196 179.356 193.629 178.785 185.72L175.2 136.024Z" fill="#33A9DC"/>
</svg>
