<svg width="512" height="512" viewBox="0 0 512 512" fill="none" xmlns="http://www.w3.org/2000/svg">
<g clip-path="url(#clip0_88_284)">
<path d="M242.613 0H269.188C271.745 0.87267 277.265 0.886438 280.068 1.06191C282.753 1.25245 285.433 1.52751 288.1 1.88666C300.02 3.37925 311.82 5.70565 323.413 8.84877C391.333 27.424 448.655 73.0575 481.985 135.085C494.537 158.542 503.33 183.822 508.047 210.005C508.66 213.453 509.922 220.379 510.182 223.833C510.98 229.414 511.125 235.235 512 240.626V251.635V270.15C510.94 274.112 510.945 282.013 510.408 286.575C509.103 297.485 507.105 308.3 504.432 318.955C488.07 383.247 447.455 438.71 391.1 473.715C363.78 490.687 333.495 502.335 301.842 508.04C296.065 509.1 290.257 509.975 284.427 510.665C281.9 510.953 273.452 511.365 271.688 512H240.385C239.242 511.593 237.683 511.47 236.462 511.402C228.449 510.957 220.675 509.763 212.766 508.473C186.099 503.94 160.322 495.195 136.401 482.568C73.326 449.243 26.9967 391.132 8.5581 322.22C5.85135 312.16 3.09125 298.848 1.83657 288.543C1.4827 285.648 1.21358 282.745 1.02958 279.835C0.873257 277.325 0.787597 271.633 0 269.42V242.613C0.46084 241.409 0.583032 239.845 0.627837 238.547C0.92598 229.912 1.99384 221.699 3.4112 213.183C7.60127 188.431 15.3686 164.42 26.4695 141.903C38.288 118.196 54.1983 95.9153 72.7655 77.054C105.364 43.4215 146.656 19.4957 192.046 7.94032C204.973 4.62612 218.135 2.30536 231.415 1.07102C234.738 0.762193 239.447 0.932768 242.613 0Z" fill="#006CC0"/>
<path d="M408.022 251.01C403.01 236.687 400.102 229.342 400.185 213.374C400.28 194.529 407.41 177.59 420.845 164.355C424.692 165.396 428.082 166.546 431.39 168.846C446.492 179.344 453.107 201.163 456.4 218.347C470.057 215.394 487.132 216.735 500.412 220.549C503.572 221.456 506.802 222.947 509.922 223.767L510.182 223.833C510.98 229.414 511.125 235.235 512 240.626V251.635C510.895 252.845 509.707 254.155 508.547 255.307C492.892 270.855 468.635 276.195 447.225 276.182C433.845 331.845 391.602 371.165 341.667 395.712C294.215 419.09 241.405 429.438 188.641 425.695C150.582 422.725 113.968 411.865 88.5416 381.855C60.8464 349.168 51.6964 300.72 55.0216 258.95C63.6346 258.575 74.5776 258.878 83.3974 258.878L137.556 258.88H301.815H357.98C366.252 258.88 374.657 259.005 382.917 258.75C390.727 258.507 402.877 257.755 408.022 251.01Z" fill="#F3F2F2"/>
<path d="M203.628 154.575L249.056 154.534L249.06 195.951L203.657 195.957C203.329 182.601 203.622 168.015 203.628 154.575Z" fill="#F3F2F2"/>
<path d="M146.63 154.576L192.036 154.543L192.037 195.956L146.656 195.959C146.331 182.593 146.62 168.05 146.63 154.576Z" fill="#F3F2F2"/>
<path d="M260.715 101.753L306.123 101.746L306.103 142.919C304.725 143.413 265.005 143.098 260.703 143.048L260.715 101.753Z" fill="#F3F2F2"/>
<path d="M89.5449 207.474L135.017 207.458L135.013 248.773C120.098 248.53 104.539 248.761 89.5709 248.763C89.3194 235.252 89.5437 221.04 89.5449 207.474Z" fill="#F3F2F2"/>
<path d="M260.73 154.587C275.765 154.393 291.025 154.614 306.092 154.537C306.357 167.794 306.237 182.689 306.087 195.954L260.715 195.953L260.73 154.587Z" fill="#F3F2F2"/>
<path d="M317.74 207.473L363.145 207.456C363.22 221.222 363.21 234.988 363.118 248.753C348.5 249.09 332.49 248.755 317.755 248.754L317.74 207.473Z" fill="#F3F2F2"/>
<path d="M260.72 207.471L306.093 207.455C306.33 220.424 306.345 235.803 306.063 248.729C301.97 248.988 295.043 248.761 290.775 248.761L260.733 248.755L260.72 207.471Z" fill="#F3F2F2"/>
<path d="M203.64 207.471L249.059 207.452L249.051 248.768C234.055 248.585 218.696 248.758 203.67 248.756C203.353 235.389 203.6 220.925 203.64 207.471Z" fill="#F3F2F2"/>
<path d="M146.641 207.472L192.035 207.451L192.03 248.77C177.087 248.558 161.654 248.757 146.67 248.757C146.352 235.394 146.599 220.922 146.641 207.472Z" fill="#F3F2F2"/>
</g>
<defs>
<clipPath id="clip0_88_284">
<rect width="512" height="512" fill="white"/>
</clipPath>
</defs>
</svg>
