<svg width="512" height="512" viewBox="0 0 512 512" fill="none" xmlns="http://www.w3.org/2000/svg">
<path d="M253.63 56.3452C261.842 55.0927 271.635 59.7245 277.272 65.452C281.482 69.7297 285.76 73.9605 289.997 78.2137L313.258 101.472L389.497 177.752L432.057 220.267L442.945 231.183C446.6 234.819 450.77 238.79 453.828 242.902C456.795 246.896 458.815 253.377 458.848 258.322C458.908 267.217 455.437 274.307 449.27 280.517C444.975 284.842 440.68 289.06 436.4 293.337L411.065 318.68L332.538 397.205L293.775 435.978L282.317 447.457C281.347 448.427 280.12 449.572 279.212 450.562C265.95 465.062 248.204 465.537 234.348 451.922L114.422 331.987L77.7522 295.317L66.695 284.292C59.1112 276.707 53.2535 270.825 53.214 259.252C53.224 253.302 55.0162 247.488 58.3597 242.564C61.161 238.422 65.563 234.388 69.1602 230.797L82.8785 217.091L133.826 165.965C143.963 155.251 154.279 144.71 164.771 134.344C170.953 128.145 176.895 121.871 183.393 115.965C187.683 119.457 192.594 124.925 196.668 128.867C206.902 138.769 217.016 149.88 227.417 159.535C226.78 161.495 225.953 163.413 225.403 165.417C224.017 170.462 224.009 178.811 225.766 183.77C229.768 195.069 235.555 198.687 245.59 203.748C245.894 206.739 245.68 214.278 245.675 217.554L245.651 244.851L245.654 291.88C245.657 299.377 245.902 307.81 245.668 315.188C244.126 316.33 242.267 316.918 240.611 317.79C229.355 323.95 223.89 334.955 224.446 347.495C225.45 370.147 249.072 383.605 269.667 374.092C294.92 362.427 293.387 324.275 266.397 315.665C266.175 311.553 266.385 305.652 266.387 301.362L266.392 272.102L266.39 229.56C266.387 224.363 265.922 210.35 266.915 204.704C267.002 204.203 268.795 203.771 269.462 203.678C272.15 204.939 285.145 218.474 288.005 221.339L312.737 246.106C309.252 254.085 308.557 262.935 311.465 271.24C314.387 279.45 320.408 285.605 328.29 289.157C343.743 296.122 363.2 289.257 370.172 273.637C373.767 265.492 374 256.257 370.823 247.941C364.775 232.232 347.63 224.905 331.892 229.747C330.437 230.195 328.972 230.783 327.55 231.33C324.982 229.366 318.687 222.627 315.987 219.922L296.76 200.731C292.952 196.915 288.445 192.158 284.512 188.587C292.935 170.982 284 148.901 264.677 144.029C257.742 142.281 248.632 142.57 242.337 146.207C238.102 142.482 232.957 136.834 228.824 132.786C218.593 122.763 208.579 112.224 198.268 102.299C198.489 101.952 198.726 101.616 198.977 101.29C200.185 99.729 203.177 96.8547 204.655 95.3737L214.52 85.4987L227.641 72.3417C236.317 63.601 240.744 57.8692 253.63 56.3452Z" fill="#F5511F"/>
</svg>
