<svg width="512" height="512" viewBox="0 0 512 512" fill="none" xmlns="http://www.w3.org/2000/svg">
<path d="M0 250.133C0.731838 248.096 0.958767 243.494 1.15106 241.237C1.40466 237.896 1.76624 234.565 2.23522 231.248C3.7923 219.304 6.1977 207.486 9.4332 195.883C28.432 128.098 74.3223 71.0288 136.451 37.9253C196.445 6.22038 266.578 -0.345316 331.415 19.6733C396.223 39.8793 450.42 84.8828 482.19 144.876C495.133 169.362 504.037 195.779 508.56 223.105C509.5 228.96 510.247 234.844 510.797 240.749C511.022 243.055 511.38 249.744 512 251.627V278.645C510.822 282.535 510.57 292.663 510.045 297.17C508.675 308.058 506.632 318.85 503.927 329.485C486.665 396.525 443.157 453.803 383.205 488.418C371.602 495.095 359.495 500.853 346.992 505.638C343.905 506.848 338.61 508.965 335.453 509.54C333.17 509.965 330.823 509.88 328.578 509.288C319.798 506.908 319.29 499.475 319.465 491.92C319.562 487.68 319.537 483.33 319.58 479.078L319.828 441.74C319.898 421.775 320.677 401.745 307.995 384.76C307.372 383.925 303.205 379.333 303.138 379.103C304.07 378.165 310.03 377.747 311.647 377.525C315.992 376.917 320.323 376.183 324.628 375.325C392.272 361.915 419.233 318.975 419.285 251.81C419.305 225.008 410.68 203.15 393.013 183.051C400.695 160.45 399.37 138.444 390.875 116.198C389.95 113.777 384.838 114.831 382.825 114.672C366.855 115.504 350.973 122.866 337.26 130.613C334.02 132.44 330.83 134.357 327.698 136.361C325.46 137.805 322.485 139.889 320.212 141.151C312.93 139.771 306.185 137.805 298.547 136.468C273.46 132.082 247.847 131.619 222.619 135.096C216.131 135.968 209.686 137.132 203.303 138.585C200.15 139.285 194.655 140.832 191.797 141.123C186.551 137.956 181.608 134.519 176.23 131.435C161.313 122.88 139.112 112.089 121.572 115.115C112.432 136.594 111.482 160.677 118.899 182.808C116.993 185.381 114.793 187.838 112.833 190.389C91.9535 217.556 90.1835 248.531 94.7162 281.275C102.258 335.762 135.848 365.83 188.715 375.735C192.502 376.437 196.299 377.08 200.107 377.658C203.014 378.093 206.357 378.457 209.139 379.188C202.318 384.405 197.042 395.735 194.982 403.878C194.243 406.793 193.657 410.503 192.842 413.198C192.759 413.248 192.675 413.298 192.592 413.348C179.732 419.598 163.658 422.035 149.844 418.203C138.197 414.973 129.048 407.353 122.195 397.703C119.742 394.223 117.713 390.515 115.171 387.078C107.362 376.545 95.8097 367.695 82.515 365.94C79.0582 365.485 72.8763 365.63 69.744 367.307C66.865 368.85 67.6277 371.902 69.4177 374.087C72.8585 378.287 77.7378 380.883 82.0468 384.07C86.1075 387.103 89.4962 390.68 92.6095 394.642C97.1797 400.565 100.994 407.035 103.964 413.9C105.351 417.065 106.697 420.902 108.236 423.9C117.755 442.427 135.307 453.063 155.728 455.41C168.515 456.883 179.626 455.61 192.173 453.19L192.467 482.955C192.586 493.802 195.158 509.763 179.267 509.753C174.339 509.75 164.865 505.603 160.165 503.7C126.09 489.84 95.389 468.823 70.1383 442.073C37.624 407.673 15.2535 364.955 5.49883 318.638C3.9656 311.358 2.76113 304.012 1.88908 296.622C1.57796 293.955 0.640413 281.39 0 279.71V250.133Z" fill="black"/>
</svg>
