<svg width="512" height="512" viewBox="0 0 512 512" fill="none" xmlns="http://www.w3.org/2000/svg">
<g clip-path="url(#clip0_88_23)">
<path d="M0 0H512V512H0V0Z" fill="#FFE000"/>
<path d="M388.375 232.367C395.43 231.979 406.765 233.293 413.605 235.053C434.84 240.519 447.385 252.783 458.12 270.885L420.583 295C416.23 285.73 407.415 276.678 397.03 274.965C389.32 273.693 381.805 274.058 375.135 278.465C364.903 285.225 364.003 301.033 371.968 309.805C378.47 316.495 388.135 320.545 396.565 324.24C419.873 334.455 445.975 344.167 461.283 365.74C471.56 380.225 474.14 401.42 470.923 418.763C468.068 434.583 458.915 448.567 445.563 457.517C424.178 472.125 393.905 474.342 369.055 469.715C365.613 469.137 361.123 467.978 357.795 466.915C333.628 459.21 316.558 444.88 304.81 422.608C308.7 420.765 316.278 416.107 320.293 413.745C327.94 409.242 336.435 404.615 343.903 399.948C347.575 405.593 351.288 410.943 356.188 415.628C366.093 425.1 378.775 429.52 392.425 429.195C401.605 428.978 411.76 426.63 418.293 419.723C422.295 415.49 424.235 410.145 424.003 404.335C423.815 399.615 422.443 395.265 419.468 391.557C410.8 380.755 382.61 371.165 369.56 365.022C358.788 359.952 348.225 353.915 339.5 345.72C325.905 332.95 319.845 316.593 319.303 298.223C318.81 281.638 324.095 265.408 335.638 253.27C349.548 238.644 368.73 232.899 388.375 232.367Z" fill="black"/>
<path d="M230.72 235.082L278.772 235.061L278.785 349.71V385.95C278.785 394.505 278.955 402.722 278.187 411.247C275.89 436.85 261.94 459.357 236.519 467.37C214.284 474.38 188.667 473.4 167.6 462.922C151.54 454.11 142.883 443.772 134.784 427.87L158.637 413.457C163.387 410.582 169.392 407.165 173.909 404.08C181.265 417.102 187.846 428.543 204.64 428.853C232.6 429.37 230.729 407.248 230.733 386.035L230.73 351.582L230.72 235.082Z" fill="black"/>
</g>
<defs>
<clipPath id="clip0_88_23">
<rect width="512" height="512" fill="white"/>
</clipPath>
</defs>
</svg>
