<svg width="512" height="512" viewBox="0 0 512 512" fill="none" xmlns="http://www.w3.org/2000/svg">
<path d="M157.773 64.1065C163.242 63.6425 174.24 63.9405 180.119 63.9272C179.745 73.694 180.014 85.6722 180.096 95.4967C171.277 95.4847 164.094 94.435 155.582 97.7597C153.034 98.755 147.477 101.34 146.022 103.694C142.47 109.442 139.902 118.765 139.448 125.518C139.034 131.677 139.677 138.523 139.706 144.787C139.767 157.753 139.7 170.402 138.781 183.327C138.294 190.178 138.024 199.498 136.826 206.186C135.77 212.245 133.982 218.154 131.501 223.782C129.839 227.498 127.729 231.577 125.388 234.854C119.571 242.994 107.344 252.263 97.9976 255.848C105.201 259.013 110.583 262.015 116.477 267.258C126.329 276.02 130.522 284.495 134.17 296.95C137.543 308.348 139.423 320.135 139.762 332.015C140.26 349.475 139.079 367.347 140.008 384.87C140.43 392.84 140.759 404.212 147.391 409.902C156.084 417.36 169.4 416.865 180.051 416.225C179.927 421.865 180.043 427.808 180.017 433.478C179.996 438.095 179.909 443.705 180.18 448.26C176.576 448.078 173.228 448.06 169.616 448.055C153.863 448.507 137.212 446.865 124.892 436.03C117.847 429.765 112.668 421.675 109.925 412.655C107.648 405.352 107.488 397.575 106.674 390.022C103.827 363.58 107.115 337.073 103.101 310.733C102.274 302.375 100.812 295.71 96.1064 288.565C89.2469 278.155 76.8854 271.805 64.1102 272.633C63.8717 269.1 64.0276 264.057 64.0276 260.425L64.0149 239.214C71.5859 240.123 79.2499 237.064 85.5812 233.166C100.437 224.02 102.037 210.867 103.848 195.135C105.967 176.139 105.203 156.499 105.67 137.399C106.292 111.942 108.53 80.9907 135.231 68.9712C143.156 65.4037 149.127 64.7662 157.773 64.1065Z" fill="#FCC02E"/>
<path d="M331.963 63.9583C350.953 63.9285 372.055 61.9965 387.16 75.847C403.963 91.253 405.468 113.092 406.14 134.377C406.588 148.529 406.478 162.597 406.69 176.792C406.878 189.321 408.61 203.496 411.628 215.633C412.493 218.881 417.805 226.86 420.54 229.253C428.175 235.935 437.83 239.77 448.005 239.335C447.94 250.278 447.95 261.223 448.038 272.165C445.09 272.285 441.643 272.675 438.753 273.323C425.723 276.238 417.225 283.55 412.125 295.747C409.838 301.215 409.48 306.81 408.658 312.617C406.095 330.695 406.735 348.592 406.665 366.77C406.64 373.325 406.038 380.73 405.573 387.315C405.05 394.695 404.36 403.783 402.51 410.878C401.083 416.208 398.843 421.288 395.875 425.94C388.123 438.07 377.72 443.748 364.06 446.73C354.555 448.565 341.89 447.998 331.963 448.17C331.915 437.5 331.923 426.833 331.99 416.165C334.02 416.548 335.985 416.467 337.93 416.587C349.908 417.332 365.425 414.565 369.663 401.45C372.29 393.323 372.185 382.565 372.225 373.92L372.295 348.525C372.28 342.902 372.048 337.02 372.233 331.43C372.643 320.35 374.363 309.355 377.358 298.677C378.583 294.195 380.34 288.55 382.28 284.297C386.375 275.315 395.693 266.075 403.923 260.758C405.808 259.54 412.183 256.782 414.343 256.017C408.62 254.347 400.515 248.271 395.855 244.402C375.828 227.776 374.26 204.085 373.09 179.601C372.395 167.251 372.13 154.881 372.3 142.512C372.332 137.308 373.038 130.624 372.713 125.775C372.298 119.602 369.127 105.59 364.112 101.789C354.447 94.4633 343.23 94.9753 332.088 95.8475C331.848 92.3778 331.998 87.3903 332.003 83.832L331.963 63.9583Z" fill="#FCC02E"/>
</svg>
