<svg width="254" height="512" viewBox="0 0 254 512" fill="none" xmlns="http://www.w3.org/2000/svg">
<g clip-path="url(#clip0_88_383)">
<path d="M139.783 14.9865C140.77 14.4259 151.431 14.2735 152.604 14.8196C161.559 14.8374 170.291 18.9084 178.512 25.9816C179.504 26.8341 180.537 27.5875 181.502 28.5517C189.693 36.7405 197.744 50.8328 204.886 62.4343L227.511 99.3519C232.421 107.354 237.308 115.417 242.17 123.539C244.871 128.056 247.605 132.601 250.171 137.422C250.695 138.407 251.883 141.176 251.838 142.525C251.745 145.279 249.265 143.756 248.598 143.148C245.687 140.495 242.855 137.481 240.018 134.544L224.497 118.361L178.457 70.0727C173.599 64.8764 168.719 59.7621 163.819 54.7304C161.056 51.9206 156.855 47.4721 153.68 45.6635C148.251 42.5706 137.376 43.7544 134.043 54.9952C133.156 57.9862 134.394 63.1602 135.762 64.7989C138.891 68.8547 142.462 72.4312 145.767 75.9586L190.698 122.828L203.404 136.312C210.821 144.274 216.856 150.997 222.633 163.887C229.454 179.107 232.676 198.362 228.739 218.134C223.845 242.711 210.476 259.303 198.907 269.254C191.379 275.729 182.898 280.155 174.988 284.322C171.276 286.277 167.044 288.148 163.438 290.516C163.327 298.708 163.378 307.377 163.367 315.604L163.317 359.073L163.122 460.837C163.116 467.313 163.269 519.754 162.739 522.382C161.65 523.295 155.656 516.955 154.334 515.667C150.654 512.081 146.986 508.441 143.33 504.754L135.607 497.017C134.388 495.794 132.533 494.065 131.417 492.733L131.33 374.824C131.328 353.267 131.599 328.778 131.108 307.494C119.571 312.625 107.48 319.1 95.9814 324.908L42.5955 351.993C33.7035 356.589 24.8 361.094 15.8851 365.505L6.72447 369.996C5.70362 370.489 1.48417 372.74 0.74973 372.387C0.431995 371.363 1.06753 369.447 1.17649 368.283C1.60063 363.757 2.46208 359.252 3.58055 355.218C16.7922 307.59 38.8716 269.769 61.628 241.681C89.1178 207.753 119.057 184.46 149.894 166.585C151.628 165.583 161.795 159.665 162.705 160.61C163.315 163.832 163.125 180.326 163.132 184.541L163.283 224.907C163.284 233.637 163.132 247.646 163.555 255.904C175.616 250.799 189.916 240.379 197.287 219.076C199.708 212.079 200.747 201.74 199.706 193.499C197.35 174.853 187.969 164.414 180.386 156.28C176.263 151.872 172.127 147.515 167.978 143.209L131.517 105.252C127.936 101.524 124.37 97.7333 120.822 93.8804C115.057 87.6664 105.806 78.1464 103.747 64.2511C102.938 58.7929 103.483 49.3937 105.141 44.7858C106.578 40.421 107.249 39.1875 109.168 36.0306C115.031 26.3821 123.181 20.0933 130.536 17.0715C133.584 15.8491 136.676 15.1516 139.783 14.9865ZM52.3631 313.136L108.814 284.24L121.901 277.426C124.07 276.281 128.834 274.188 130.564 272.046C131.566 268.686 131.345 260.007 131.351 255.797V238.55C131.341 233.612 131.452 220.175 131.058 215.996C130.855 215.947 130.822 215.916 130.62 215.945C127.82 217.785 125.267 219.995 122.436 222.467C96.8618 244.81 71.84 272.627 51.9737 312.676C51.922 312.779 51.9013 313.054 51.8861 313.203C52.1068 313.199 52.149 313.226 52.3631 313.136Z" fill="#C62B47"/>
</g>
<defs>
<clipPath id="clip0_88_383">
<rect width="254" height="512" fill="white"/>
</clipPath>
</defs>
</svg>
