<svg width="512" height="512" viewBox="0 0 512 512" fill="none" xmlns="http://www.w3.org/2000/svg">
<path d="M112.146 93.8585C116.607 93.5492 117.773 94.4592 121.326 97.161C130.191 103.902 133.031 114.519 125.9 123.716C125.172 124.656 123.179 127.032 122.067 127.142L121.508 126.651C118.989 121.289 116.184 114.757 113.043 109.832C111.65 107.648 108.47 104.357 106.746 102.201C104.833 99.8087 103.548 97.901 101.824 95.365C105.391 94.6765 108.515 94.101 112.146 93.8585Z" fill="#00758F"/>
<path d="M0 32.048L0.181753 31.5735C0.4178 30.942 0.44624 30.7033 0.61108 30.0858C2.60517 22.6143 6.5943 15.5423 13.4348 11.5724C23.0712 5.97986 35.3425 7.09466 45.7345 9.87989C61.3123 14.0895 75.8515 21.4631 89.3272 30.2368C92.7187 32.445 100.194 40.4605 103.434 41.098C110.749 42.5373 121.684 41.9273 129.363 42.8918C133.443 43.404 136.667 44.4075 140.625 45.32C146.72 46.7173 152.654 48.3643 158.608 50.2438C171.937 54.452 184.112 62.6268 195.842 70.1575C232.03 93.39 263.78 121.823 289.092 156.728C296.41 166.82 303.213 176.814 309.635 187.598C317.213 200.32 321.39 214.036 327.425 227.506C332.13 238.011 336.675 248.512 341.608 258.97C346.188 268.708 351.107 278.268 355.932 287.885C360.412 296.82 363.948 307.005 370.345 314.805C372.453 317.377 379.998 319.608 383.138 321.008C387.645 323.02 392.195 325.12 396.705 327.14C402.19 329.625 408.322 332.098 413.612 334.88C418.487 337.445 423.957 341.065 428.58 344.105C441.762 352.853 454.468 362.3 466.64 372.408C475.62 379.825 482.742 385.672 489.247 395.467C491.745 399.225 494.57 399.97 495.052 404.943C491.96 406.328 488.855 406.95 485.715 408.013C473.22 412.233 460.345 412.455 447.508 414.737C438.32 416.37 428.75 420.747 419.245 421.115C420.522 423.34 422.318 426.56 424.04 428.413C433.32 438.398 446.788 444.24 458.065 451.55C463.778 455.252 469.998 460.392 475.108 464.932C479.773 469.08 484.75 474.233 488.818 478.938C491.448 481.975 493.847 485.102 496.495 488.11C499.7 491.755 503.978 494.8 506.888 498.64C509.063 501.508 509.858 505.965 512 508.94V510.445C507.867 509.045 504.165 503.88 500.085 500.987C493.2 496.11 486.363 490.597 479.29 485.995C468.995 479.292 457.345 474.603 446.312 469.165C436.637 464.395 428.637 459.003 420.055 452.445C416.395 449.59 411.968 446.7 408.728 443.415C402.08 436.678 396.008 428.82 392.41 420.017C391.92 418.815 389.563 414.903 389.845 413.73C391.11 408.508 399.305 407.805 403.538 406.135C425.073 397.613 448.59 395.423 471.728 396.323C467.265 387.743 457.085 383.283 449.272 377.943C436.01 368.878 422.902 358.597 408.735 350.962C405.405 349.17 400.42 347.878 396.832 346.378C392.902 344.735 388.657 343.402 384.68 341.865C378.145 339.615 358.62 334.615 354.323 329.628C344.548 318.273 336.718 300.37 330.658 286.793C327.905 280.635 325.118 274.495 322.295 268.367C316.373 255.477 310.112 243.18 304.557 230.039C301.762 223.428 298.92 214.898 295.915 208.824C290.183 197.247 282.777 185.098 275.58 174.459C248.637 134.528 212.569 101.589 170.363 78.3683C159.76 72.6525 148.35 67.2388 136.766 63.8453C128.704 61.4833 120.434 61.591 112.127 61.051C109.321 60.8685 106.547 60.3948 103.746 60.1855C100.246 59.9243 96.0685 60.2733 92.7715 58.9695C87.1567 56.7495 83.348 51.5728 78.546 48.1275C68.662 41.0358 43.2268 28.7145 31.485 26.5061C27.6073 25.7768 23.1315 25.9726 19.8176 28.3795C17.8183 29.8315 16.6292 32.656 16.2709 35.039C14.5837 46.2598 30.1893 62.761 36.5628 71.3295C42.2788 79.014 48.2873 86.9345 52.9038 95.333C64.8115 116.996 67.9827 143.471 79.0905 165.256C82.3942 171.736 86.0855 179.003 90.828 184.525C93.7395 187.916 97.412 190.623 100.021 194.278C101.502 196.353 102.847 198.99 103.158 201.55C104.317 211.114 96.646 226.961 93.5965 236.305C91.6822 242.17 90.4882 248.214 89.478 254.29C85.31 279.365 88.1402 308.85 98.212 332.247C100.174 336.802 102.155 341.262 105.083 345.3C107.585 348.75 111.479 351.98 115.777 352.682C116.211 352.465 116.669 352.17 116.752 351.67C120.04 331.925 119.497 309.8 130.661 292.307C133.97 287.122 139.581 280.825 143.734 275.592C147.203 279.477 147.603 284.217 149.586 288.897C153.184 297.387 156.628 305.988 160.649 314.29C168.109 329.628 176.38 344.56 185.427 359.017C195.272 374.695 207.124 391.865 220.27 405.013C222.742 407.485 228.452 411.038 229.889 413.908L229.681 414.253C221.948 411.888 213.141 400.848 206.967 395.573C201.534 390.928 195.727 386.727 190.434 381.922C179.351 371.86 168.651 361.065 160.332 348.555C158.115 345.195 155.212 338.568 153.342 334.823C150.416 328.96 147.313 322.898 144.508 317.015C143.186 322.368 142.129 329.772 141.129 335.422C139.52 344.447 139.506 356.285 134.146 363.995C127.312 373.827 112.706 374.025 103.874 366.943C86.226 352.79 77.5295 327.857 74.104 306.305C70.9177 286.352 71.3823 265.99 75.4755 246.205C76.815 239.923 78.6347 234.257 80.199 228.071C81.9562 221.121 82.9627 212.232 87.2625 206.315C84.2167 199.186 80.9705 198.828 76.9323 193.006C71.9195 185.779 67.0223 176.706 63.2485 168.751C59.247 160.316 56.0235 151.071 52.9025 142.278C50.86 136.522 48.7855 130.743 46.8177 124.965C44.4442 117.997 43.522 111.072 39.8607 104.537C36.7492 98.9833 33.199 94.2958 29.3875 89.2328C25.3868 83.9018 21.3364 78.6083 17.2367 73.353C12.4036 67.125 7.77912 61.169 4.36707 53.9848C3.04727 51.1728 1.96651 48.2545 1.13628 45.2613C0.724637 43.759 0.53635 42.3623 0 40.8865V32.048Z" fill="#00758F"/>
</svg>
