<svg width="512" height="512" viewBox="0 0 512 512" fill="none" xmlns="http://www.w3.org/2000/svg">
<path d="M255.758 26.1973C257.335 26.4093 307.86 55.8043 313.793 59.2023L408.293 113.368C424.815 122.833 442.46 132.55 458.7 142.31C458.368 173.718 458.66 205.648 458.66 237.09L458.707 374.518L256.325 490.538C255.058 490.413 221.743 471.022 218.405 469.11L144.781 426.925L82.4728 391.213C73.0478 385.798 62.5375 380.078 53.3233 374.468C53.0763 366.198 53.298 356.745 53.2983 348.367L53.2995 297.535L53.2903 142.268L255.758 26.1973Z" fill="#43A046"/>
<path d="M162.472 138.839C175.481 137.386 189.924 141.026 199.049 150.456C203.646 155.207 208.206 160.528 212.628 165.484L239.196 195.219L292.543 254.885C301.423 264.822 311.468 275.56 319.973 285.675C320.36 257.19 320.01 227.803 319.995 199.253L319.985 175.624C319.985 171.692 319.8 165.255 320.293 161.541C320.89 157.248 322.54 153.169 325.093 149.666C329.25 143.947 335.51 140.112 342.495 139.006C349.475 137.882 356.613 139.594 362.323 143.76C368.078 147.945 371.93 154.249 373.025 161.28C373.385 163.622 373.318 168.096 373.323 170.572L373.33 185.492V237.164L373.328 312.508L373.33 335.915C373.33 345.53 374.365 354.453 368.06 362.57C362.958 369.138 357.253 372.088 349.103 373.223C340.67 373.513 334.748 373.182 326.753 370.24C316.003 366.285 310.635 358.34 303.273 350.087L278.92 322.812L221.997 259.067C212.056 247.934 201.753 236.686 192.002 225.429L192.007 310.318L192.015 335.835C192.015 339.855 192.208 346.512 191.732 350.245C191.169 354.44 189.615 358.443 187.199 361.92C183.181 367.663 177.069 371.598 170.179 372.883C163.058 374.195 155.709 372.55 149.826 368.33C144.103 364.242 140.082 357.862 138.993 350.895C138.586 348.29 138.699 343.443 138.697 340.658L138.701 324.552L138.702 268.543L138.695 197.106L138.693 174.9C138.695 165.42 137.772 157.246 144.059 149.267C148.941 143.072 154.693 139.888 162.472 138.839Z" fill="white"/>
</svg>
