<svg width="819" height="512" viewBox="0 0 819 512" fill="none" xmlns="http://www.w3.org/2000/svg">
<g clip-path="url(#clip0_88_340)">
<path d="M241.337 3H577.787L578.239 3.10104C582.902 4.10656 590.064 4.12494 595.067 4.80419C605.196 6.17899 614.85 7.91648 624.767 10.3642C687.344 25.8662 741.787 64.3736 777.254 118.218C795.646 146.209 808.383 177.529 814.749 210.412C815.765 215.696 816.549 220.634 817.248 225.948C817.724 229.587 818.092 238.474 819 241.52V276.47L818.912 276.873C818.312 279.678 818.088 283.113 817.84 285.997C816.769 298.345 814.389 310.67 811.326 322.667C795.526 384.316 757.315 437.856 704.156 472.832C675.779 491.556 643.951 504.428 610.539 510.7C604.504 511.84 598.434 512.768 592.331 513.48C589.484 513.788 581.358 514.388 579.027 515H240.414C236.503 514.028 229.863 513.888 225.636 513.344C219.874 512.6 214.315 511.708 208.603 510.624C173.374 503.992 139.926 490.048 110.416 469.692C58.4901 433.824 21.63 380.042 6.90439 318.664C4.77387 309.792 3.16882 300.748 1.88298 291.71C1.1132 286.299 1.06448 279.34 0.0763494 274.154L0 273.765V244.018C0.72905 241.261 1.08459 233.279 1.5046 229.859C2.22925 223.958 3.05038 218.493 4.1078 212.639C10.2212 179.274 22.9157 147.46 41.4511 119.054C76.9188 64.546 131.842 25.6264 195.015 10.2355C204.868 7.82348 214.657 6.14112 224.709 4.76228C229.492 4.10626 236.453 4.08092 240.925 3.09386L241.337 3ZM567.997 412.424C610.319 410.228 648.378 393.6 677.011 361.89C704.528 331.467 718.708 291.282 716.377 250.323C714.082 209.531 695.622 171.338 665.094 144.198C644.551 125.93 619.469 113.536 592.483 108.319C572.148 104.338 546.81 105.45 525.72 105.466L441.248 105.474L315.467 105.462L274.332 105.46C267.187 105.46 258.389 105.251 251.358 105.568C207.922 108.036 170.816 124.081 141.491 156.863C114.102 187.62 100.21 228.092 102.935 269.19C105.603 309.162 123.785 346.508 153.599 373.257C173.998 391.553 198.923 404.052 225.783 409.46C246.444 413.636 270.9 412.544 292.331 412.54L373.27 412.52L502.157 412.512L544.179 412.524C551.801 412.528 560.455 412.712 567.997 412.424Z" fill="#C94736"/>
</g>
<defs>
<clipPath id="clip0_88_340">
<rect width="819" height="512" fill="white"/>
</clipPath>
</defs>
</svg>
