<svg width="496" height="512" viewBox="0 0 496 512" fill="none" xmlns="http://www.w3.org/2000/svg">
<path d="M256.006 24.1083C275.274 23.1811 300.826 28.827 318.285 36.6142C358.419 54.5152 387.017 89.561 402.54 130.032C401.635 129.853 400.728 129.702 399.816 129.58C373.827 126.191 340.798 132.979 338.392 164.505C335.796 198.519 356.205 233.247 371.65 262.245C376.233 270.847 380.476 279.628 385.338 287.945C389.069 294.323 394.671 301.208 399.214 307.015C391.455 308.843 383.412 313.565 379.918 321.027C376.543 328.237 376.753 335.945 376.3 343.682C376.045 347.745 375.711 351.803 375.296 355.853C373.364 376.3 370.308 397.81 367.762 418.247C366.168 431.037 363.972 447.763 360.786 459.888C359.631 464.358 357.947 468.675 355.768 472.747C347.37 488.215 334.227 492.723 318.572 497.358C272.74 507.543 259.514 481.177 256.731 440.55C254.507 414.132 254.719 387.395 254.764 360.932C254.537 346.045 258.405 331.245 248.332 318.467C242.558 311.145 231.376 304.57 222.022 307.918C226.091 289.933 236.6 271.892 242.373 254.045C250.589 228.648 249.634 204.438 245.262 178.431C242.002 159.043 237.727 139.517 216.216 133.26C194.689 126.947 172.776 135.567 153.878 145.356C158.094 101.139 173.538 50.9205 217.736 31.8567C230.56 26.3256 242.217 24.5904 256.006 24.1083Z" fill="#316790"/>
<path d="M100.252 25.3534C124.55 23.7664 158.156 30.4868 181.246 38.0125C176.362 42.1585 172.633 46.6713 168.915 51.97C148.481 81.0935 140.086 117.579 138.163 152.66C137.82 158.918 138.11 165.672 138.536 171.855C139.167 181.043 139.554 190.185 139.392 199.386C139.356 203.703 139.162 208.018 138.81 212.321C137.886 222.372 136.145 233.443 136.089 243.415C135.988 262.078 142.639 280.148 154.814 294.288C157.431 297.355 160.452 299.965 163.304 302.842C152.299 313.197 142.666 324.905 132.759 336.297C127.986 341.787 123.168 347.703 118.088 352.888C114.683 356.253 110.527 359.62 105.594 360.128C99.7094 360.73 94.0283 357.418 89.7104 353.755C53.5809 323.1 20.0694 184.875 16.3031 136.68C14.0468 107.809 18.4716 75.2218 37.8856 52.5213C53.343 34.4468 77.2742 27.1631 100.252 25.3534Z" fill="#316790"/>
<path d="M359.234 18.1133C386.163 17.4879 415.311 23.5086 438.334 37.7435C451.56 45.9205 471.867 62.1177 475.615 77.8562C479.428 93.873 477.422 112.003 474.741 127.999C467.742 169.77 453.254 210.159 434.651 248.077C428.846 260.175 422.462 271.988 415.521 283.47C413.304 286.953 411.255 290.677 408.851 294.022C407.929 293.307 407.185 292.877 406.193 292.277C407.974 289.46 409.534 286.51 410.86 283.453C420.166 261.995 419.259 242.095 416.328 219.425C415.321 211.639 414.034 200.57 414.166 192.813C414.574 176.032 419.199 159.797 419.391 142.968C419.494 133.822 418.172 128.307 414.761 119.792C398.192 78.4097 364.786 39.936 323.457 22.1941C332.545 19.7818 349.866 18.5246 359.234 18.1133Z" fill="#316790"/>
<path d="M196.81 146.598C206.406 145.288 219.684 148.466 224.026 157.999C228.305 167.393 229.706 178.605 231.147 188.734C234.233 210.434 234.009 233.037 226.262 253.785C222.917 262.76 218.681 271.595 215.108 280.547C211.934 288.5 209.682 296.183 207.113 304.32C199.71 303.575 197.173 303.385 189.843 301.092C166.045 293.392 151.038 267.392 151.166 243.137C151.214 234.076 153.098 224.441 153.776 215.311C154.806 201.666 154.844 187.965 153.888 174.314C153.667 170.945 153.434 165.542 152.866 162.435L152.799 162.077C156.221 159.981 161.209 157.905 164.909 156.293C174.392 152.162 186.435 147.608 196.81 146.598Z" fill="#316790"/>
<path d="M201.217 154.83C205.178 154.322 209.667 155.13 213.342 156.543C224.507 160.836 221.61 169.167 211.892 172.476C206.979 173.879 202.442 172.791 198.305 169.812C195.042 167.462 190.658 162.16 193.741 158.107C195.406 155.918 198.603 155.204 201.217 154.83Z" fill="white"/>
<path d="M387.16 143.861C392.817 143.783 398.267 144.283 403.871 144.985C402.867 161.451 399.011 177.752 398.849 193.995C398.614 217.73 406.83 241.879 400.72 265.63C399.621 269.905 398.089 273.618 396.438 277.675C394.184 273.615 391.333 267.125 389.134 262.735C374.281 234.858 355.731 204.893 353.137 172.629C351.383 150.811 368.644 144.556 387.16 143.861Z" fill="#316790"/>
<path d="M377.402 151.345C396.873 148.994 390.973 164.598 377.395 166.813C364.369 167.052 356.568 153.747 377.402 151.345Z" fill="white"/>
<path d="M226.067 321.723C233.488 322.528 241.551 331.68 239.874 339.383C238.472 345.825 228.764 354.408 223.419 358.178C209.418 368.053 191.834 368.86 175.748 365.813C170.593 364.84 164.663 363.173 159.841 361.06C165.543 358.565 170.278 357.885 176.138 356.573C184.84 354.625 197.763 351.33 204.397 345.348C212.966 337.623 216.221 328.713 226.067 321.723Z" fill="#316790"/>
<path d="M407.897 319.825C408.976 320.553 410.803 321.802 411.857 322.4C428.579 331.867 458.289 328.817 476.043 324.247C471.37 328.742 461.392 334.877 455.6 337.497C436.8 345.472 413.114 348.577 393.062 343.835C390.326 343.187 392.555 331.948 393.534 329.758C396.388 323.375 402.045 322.073 407.897 319.825Z" fill="#316790"/>
</svg>
