<svg width="441" height="512" viewBox="0 0 441 512" fill="none" xmlns="http://www.w3.org/2000/svg">
<g clip-path="url(#clip0_88_401)">
<path d="M0 132.399C8.91177 126.651 17.5511 122.006 26.7333 116.746L65.6801 94.4648L149.969 45.9289L196.208 19.1789C202.903 15.3092 213.958 7.45093 220.733 5.84558C227.291 9.33477 233.052 13.5232 239.129 16.8449C270.966 34.2457 302.169 53.3781 333.671 71.3171L402.922 111.165C413.642 117.302 424.892 123.159 435.513 129.54C436.68 130.24 437.115 131.821 437.581 133.128L437.469 373.865C437.469 384.159 438.377 466.688 436.797 470.614C432.766 474.182 425.868 477.483 421.065 480.255L387.746 499.343L372.724 507.984C370.445 509.324 368.017 511.164 365.662 512.177C364.993 512.302 364.202 512.332 363.582 512.005C351.552 505.575 339.659 498.886 327.612 492.486C317.375 487.051 307.157 481.586 297.097 475.837C294.627 474.424 292.152 473.717 289.826 472.083C287.828 474.018 283.985 475.557 281.447 477.074C263.134 488.038 244.225 497.929 226.007 509.048C224.576 509.919 221.378 512.285 220.071 512.345L219.506 511.957C215.925 510.979 205.128 503.989 201.114 501.722C174.762 486.818 148.605 471.592 122.323 456.547L52.5277 416.546C35.75 406.974 17.0264 394.864 0 386.167V132.671V132.399Z" fill="#DE254D"/>
<path d="M0 132.399C8.91177 126.651 17.5511 122.006 26.7333 116.746L65.6801 94.4648L149.969 45.9289L196.208 19.1789C202.903 15.3092 213.958 7.45093 220.733 5.84558C227.291 9.33477 233.052 13.5232 239.129 16.8449C270.966 34.2457 302.169 53.3781 333.671 71.3171L402.922 111.165C413.642 117.302 424.892 123.159 435.513 129.54C436.68 130.24 437.115 131.821 437.581 133.128C432.757 137.212 421.018 142.938 415.032 146.428C405.331 152.086 395.337 157.924 385.623 163.602C381.401 166.069 367.62 172.718 364.927 175.848C360.167 171.769 340.036 161.24 333.572 157.491L244.975 106.205C240.843 103.771 222.797 93.8826 220.581 91.9031C207.119 98.7375 194.88 106.246 181.901 113.843L137.401 139.531L96.0691 163.225C92.8021 165.082 75.7797 173.998 74.7095 176.146C74.3395 175.096 69.3856 172.006 68.2047 171.362C47.0914 159.847 26.5595 147.321 5.52757 135.643C3.66149 134.606 1.99101 133.466 0 132.671V132.399Z" fill="#7588BE"/>
<path d="M0 132.671C1.99101 133.466 3.66149 134.606 5.52757 135.643C26.5595 147.322 47.0914 159.847 68.2047 171.362C69.3856 172.006 74.3395 175.096 74.7094 176.146C75.0514 181.979 74.8619 188.938 74.8615 194.895L74.8524 227.635C74.8386 265.794 74.4274 304.753 74.874 342.848L202.555 416.501C205.088 417.986 218.86 425.473 219.566 426.349C219.587 454.112 220.222 484.405 219.506 511.957C215.925 510.979 205.128 503.989 201.114 501.722C174.762 486.818 148.605 471.592 122.323 456.547L52.5277 416.546C35.75 406.974 17.0264 394.864 0 386.167V132.671Z" fill="#B2BEE7"/>
<path d="M437.581 133.128L437.469 373.865C437.469 384.159 438.377 466.688 436.797 470.614C432.766 474.182 425.868 477.484 421.065 480.255L387.746 499.343L372.724 507.984C370.445 509.324 368.017 511.164 365.662 512.177C364.887 508.596 365.141 493.292 365.143 488.965L365.172 441.514L365.162 260.751L365.177 204.666C365.179 197.652 365.595 182.325 364.927 175.848C367.62 172.718 381.401 166.069 385.624 163.602C395.337 157.924 405.331 152.086 415.032 146.428C421.018 142.938 432.757 137.212 437.581 133.128Z" fill="#24386D"/>
<path d="M219.567 426.349C221.28 425.669 224.171 423.883 225.955 422.898C237.181 416.695 249.047 409.596 260.029 403.104C266.32 399.385 285.1 389.579 289.788 385.362C289.957 414.268 289.969 443.178 289.826 472.083C287.829 474.018 283.986 475.557 281.447 477.074C263.134 488.038 244.226 497.929 226.007 509.048C224.576 509.919 221.378 512.285 220.071 512.345L219.506 511.957C220.222 484.405 219.587 454.112 219.567 426.349Z" fill="#24386D"/>
<path d="M220.172 178.345C226.2 180.855 231.131 184.708 236.725 187.642C247.381 193.231 257.38 199.492 267.75 205.579C274.863 209.754 283.017 213.991 289.817 218.52C290.117 244.774 290.308 273.309 289.894 299.537C271.16 310.644 252.063 321.511 233.124 332.258C229.87 334.105 222.938 338.917 219.602 339.6C216.516 338.628 210.121 334.089 206.838 332.251L169.568 310.973C163.73 307.621 155.165 302.384 149.226 299.62C149.873 276.831 148.611 242.508 149.594 218.742C149.91 218.358 150.179 218.031 150.402 217.76C153.037 216.819 161.119 211.747 164.178 210.013L204.972 186.636C209.258 184.17 215.695 179.611 220.172 178.345Z" fill="#7588BE"/>
<path d="M289.817 218.52C290.117 244.774 290.307 273.309 289.893 299.537C271.16 310.644 252.062 321.511 233.124 332.258C229.869 334.105 222.937 338.917 219.602 339.6L219.57 307.242C219.945 302.855 219.713 294.654 219.712 289.975C219.743 279.694 219.709 269.413 219.609 259.132C222.143 257.896 225.173 256.153 227.597 254.699C248.183 242.347 269.231 230.862 289.817 218.52Z" fill="#24386D"/>
<path d="M149.226 299.62C149.873 276.831 148.611 242.508 149.594 218.742C149.91 218.358 150.179 218.031 150.402 217.76C156.247 223.455 174.543 232.86 182.463 237.491C194.638 244.611 207.095 251.475 219.085 259.096C220.11 270.007 218.988 283.96 219.382 295.054C219.472 297.579 219.181 305.155 219.57 307.242L219.602 339.6C216.516 338.628 210.121 334.089 206.838 332.251L169.568 310.973C163.73 307.621 155.165 302.384 149.226 299.62Z" fill="#B2BEE7"/>
</g>
<defs>
<clipPath id="clip0_88_401">
<rect width="441" height="512" fill="white"/>
</clipPath>
</defs>
</svg>
