<svg width="512" height="512" viewBox="0 0 512 512" fill="none" xmlns="http://www.w3.org/2000/svg">
<g clip-path="url(#clip0_88_162)">
<path d="M241.885 0H270.133C272.188 0.767417 277.717 0.88065 280.12 1.05327C283.5 1.30446 286.875 1.64401 290.237 2.07155C301.452 3.60433 312.555 5.87375 323.473 8.86512C393.35 27.9882 451.9 75.7375 484.688 140.341C496.585 163.846 504.765 189.055 508.935 215.068C509.765 220.291 510.43 225.539 510.925 230.804C511.167 233.3 511.295 239.877 512 241.857V270.198C511.335 272.433 511.29 276.3 511.12 278.72C510.915 281.608 510.642 284.49 510.297 287.365C508.982 297.927 507.032 308.403 504.46 318.73C487.647 385.05 445.032 441.902 386.09 476.642C352.765 496.165 317.455 507.6 279.21 511.073C277.072 511.268 273.315 511.368 271.39 512H240.588C237.794 511.22 229.482 510.822 226.028 510.375C220.231 509.623 214.836 508.75 209.064 507.723C178.851 502.135 149.896 491.127 123.599 475.237C65.8732 440.297 24.2039 384.058 7.58642 318.66C5.29357 309.658 2.9653 298.118 1.8733 288.788C1.48244 285.418 1.15529 282.04 0.892003 278.658C0.704948 276.248 0.62844 272.735 0 270.473V241.572C0.691667 239.185 0.876908 232.038 1.18769 229.158C1.68997 224.505 2.22717 220.283 2.98685 215.618C6.97285 190.642 14.6318 166.393 25.715 143.659C57.9205 77.8587 116.684 28.9365 187.232 9.19155C198.372 6.12115 209.703 3.79648 221.152 2.23296C224.303 1.79817 227.464 1.4394 230.632 1.15694C233.22 0.940075 239.943 0.79063 241.885 0Z" fill="#CC6699"/>
<path d="M319.875 62.3582C346.01 61.2572 377.197 65.7575 398.232 82.3185C432.277 109.123 418.467 157.444 394.83 186.072C375.027 210.051 353.445 223.46 323.955 232.286C312.84 235.637 301.442 237.969 289.905 239.255C268.08 241.585 242.058 240.978 224.476 226.322C218.987 221.858 213.823 216.059 212.353 208.942C211.995 207.208 213.265 203.475 215.531 204.869C219.116 207.076 221.485 210.841 225.138 213.212C234.478 219.272 245.472 222.166 256.535 222.659C293.725 223.352 333.387 208.426 360.9 183.484C375.895 169.679 389.135 151.636 390.642 130.726C392.735 101.719 360.75 94.2487 337.842 93.5647C294.702 92.276 252.665 108.855 215.593 129.661C196.881 140.163 178.677 151.875 162.912 166.552C146.849 181.565 133.178 199.975 132.261 222.852C130.929 256.097 166.331 277.338 189.109 295.815C199.127 303.94 205.221 308.778 214.181 318.375C221.209 315.78 227.139 314.962 234.443 314.022C253.982 312 267.83 311.832 287.425 318.525C322.302 330.432 345.435 380.543 304.355 400.703C302.34 401.693 296.62 403.462 297.045 399.427C297.12 398.702 305.76 392.418 306.872 391.355C308.82 389.5 310.507 387.392 311.892 385.087C315.475 379.1 316.32 372.68 314.477 366.005C304.617 330.268 253.64 325.565 224.03 333.108C231.446 348.565 230.556 372.56 225.837 388.85C219.47 410.425 204.789 428.585 185.027 439.328C168.465 448.42 147.346 452.16 129.475 446.83C111.252 441.395 106.68 413.845 112.361 398.305C113.936 393.557 115.891 388.015 118.806 383.88C137.046 358.008 166.964 342 194.114 327.258C186.72 320.983 178.603 315.378 170.617 309.88C155.448 299.44 140.996 289.317 127.136 277.147C112.304 264.122 94.2869 242.553 93.3367 222.089C92.2677 199.074 110.286 172.02 125.354 155.725C156.336 122.223 198.322 98.4753 240.264 81.3505C251.475 76.773 263.835 72.2337 275.485 69.168C289.992 65.302 304.877 63.0187 319.875 62.3582Z" fill="#FEFEFE"/>
<path d="M204.722 341.45L205.129 341.67C205.921 344.045 206.405 346.895 206.798 349.388C208.912 362.075 207.113 375.108 201.643 386.75C193.558 403.81 177.129 419.21 158.096 422.797C153.644 423.637 149.479 423.553 145.345 421.575C139.002 417.825 139.775 408.642 141.446 402.527C147.895 378.925 168.943 362.907 188.701 350.49C193.936 347.202 199.432 344.575 204.722 341.45Z" fill="#CC6699"/>
</g>
<defs>
<clipPath id="clip0_88_162">
<rect width="512" height="512" fill="white"/>
</clipPath>
</defs>
</svg>
