<svg width="512" height="512" viewBox="0 0 512 512" fill="none" xmlns="http://www.w3.org/2000/svg">
<path d="M129.498 79.0133C133.016 73.1485 137.675 68.5493 143.535 65.0698C164.503 52.619 190.109 45.3743 213.53 39.5348C220.484 37.8338 227.484 36.3285 234.522 35.0203L234.554 35.3693C234.738 37.4295 234.642 39.349 234.703 41.4103C235.372 63.9235 239.503 87.382 249.42 107.757C250.525 110.027 251.988 112.25 252.89 114.575C282.305 119.013 313.348 123.73 341.775 132.486C367.983 140.559 395.445 154.651 417.42 170.957C432.26 181.971 449.07 197.502 457.785 214.067C451.418 215.267 442.488 216.098 435.863 216.918C425.863 218.158 415.888 219.59 405.943 221.213C370.955 226.898 336.265 234.284 301.998 243.346C304.133 248.99 306.74 266.003 307.558 272.298C314.298 324.057 306.475 376.673 284.968 424.233C281.215 432.563 269.905 455.343 263.77 461.46C248.315 462.055 232.406 460.913 217.037 459.275C174.092 454.703 112.962 442.492 80.71 412.55C71.3383 403.847 64.4535 392.55 64.0413 379.497C63.605 365.687 70.2598 352.85 78.5213 342.213C80.6743 339.44 83.1883 336.957 85.3068 334.175C86.6235 332.392 88.383 331.1 89.8343 329.52C94.1945 324.723 100.646 320.883 105.058 316.453C138.743 282.63 184.671 246.536 181.706 193.631C180.328 169.045 175.442 148.896 159.487 129.416C150.435 118.364 132.682 104.055 128.503 90.8305C127.267 86.9138 127.624 82.668 129.498 79.0133ZM190.885 280.378C187.058 282.04 182.566 283.89 178.926 285.818C176.489 286.803 173.954 288.005 171.596 289.19C163.193 293.418 154.365 297.638 146.377 302.598C142.488 304.443 137.192 307.425 133.409 309.585C132.209 310.21 130.664 310.897 129.712 311.8C128.238 311.96 122.382 315.178 120.774 316.008L96.4973 328.528C94.1425 329.74 87.373 333.452 85.3068 334.175C83.1883 336.957 80.6743 339.44 78.5213 342.213C70.2598 352.85 63.605 365.687 64.0413 379.497C64.4535 392.55 71.3383 403.847 80.71 412.55C112.962 442.492 174.092 454.703 217.037 459.275C232.406 460.913 248.315 462.055 263.77 461.46C269.905 455.343 281.215 432.563 284.968 424.233C306.475 376.673 314.298 324.057 307.558 272.298C306.74 266.003 304.133 248.99 301.998 243.346C298.793 244.175 295.595 245.024 292.403 245.895C281.345 248.927 269.115 252.235 258.278 255.918C252.988 257.265 241.936 260.915 236.768 262.87C228.014 265.688 212.334 271.148 203.98 274.878C201.056 276.073 197.452 277.445 194.653 278.783L190.885 280.378ZM175.427 102.139C177.43 102.819 186.833 104.542 189.233 104.889C194.904 105.708 202.788 107.45 208.295 107.901C211.903 108.714 217.059 109.35 220.799 109.887C227.15 110.798 233.698 111.85 240.05 112.634L252.89 114.575C251.988 112.25 250.525 110.027 249.42 107.757C239.503 87.382 235.372 63.9235 234.703 41.4103C234.642 39.349 234.738 37.4295 234.554 35.3693L234.522 35.0203C227.484 36.3285 220.484 37.8338 213.53 39.5348C190.109 45.3743 164.503 52.619 143.535 65.0698C137.675 68.5493 133.016 73.1485 129.498 79.0133C131.894 82.4378 134.841 86.2513 138.291 88.6993C140.022 90.0473 143.618 92.6435 145.484 93.5218C152.448 96.7998 168.072 101.407 175.427 102.139ZM186.927 158.66C190.923 171.104 192.317 185.281 192.488 198.287C197.704 193.361 205.467 186.73 211.141 182.215C214.488 179.512 217.861 176.843 221.262 174.21C223.207 172.72 226.013 170.732 227.817 169.204C214.966 165.34 200.222 160.634 186.927 158.66ZM289.16 131.087C272.635 128.297 256.073 125.724 239.48 123.369C244.396 133.495 245.667 145.552 245.438 156.705C253.99 151.002 263.598 144.796 272.608 139.846C278.33 136.627 283.49 134.09 289.16 131.087ZM261.015 171.022C267.92 174.238 273.46 177.129 280.163 180.709C286.173 168.662 291.975 157.319 296.153 144.403C296.56 143.148 297.713 139.988 297.675 138.889L297.503 138.737C279.745 147.478 266.568 155.596 250.15 166.416C253.35 167.592 257.943 169.523 261.015 171.022ZM181.605 144.5C186.485 139.53 192.566 134.408 198.036 130.061C202.863 126.255 207.902 122.727 213.129 119.492C199.523 117.577 185.975 115.265 172.503 112.561C168.642 111.786 164.806 110.892 161 109.882C159.501 109.492 155.598 108.36 154.3 108.164C166.689 120.527 173.933 128.892 181.605 144.5ZM294.265 176.511C306.765 171.38 321.608 165.494 334.558 161.598C341.328 159.399 348.158 157.382 355.038 155.548C358.273 154.672 362.085 153.544 365.365 153.053C353.375 147.528 340.935 143.044 328.178 139.65C324.128 138.589 320.065 137.578 315.99 136.619C314.738 136.325 310.983 135.556 309.923 135.167C306.28 149.495 301.028 163.365 294.265 176.511ZM183.323 272.045L191.313 268.658C202.841 263.53 215.958 258.915 227.807 254.683C227.565 245.461 223.923 239.093 217.303 232.851C217.146 232.704 216.987 232.56 216.827 232.417C206.966 246.679 195.746 259.95 183.323 272.045ZM223.999 224.432C227.757 227.95 230.904 231.31 233.511 235.84C235.437 239.242 236.018 240.878 237.263 244.627C240.295 240.216 244.796 234.838 248.165 230.311C254.288 222.044 260.153 213.589 265.753 204.96C266.19 204.287 268.843 200.31 268.948 199.788C263.59 202.204 256.528 205.962 251.308 208.813C242.528 213.607 232.421 219.051 223.999 224.432ZM322.685 227.292C313.533 217.029 303.138 207.945 291.743 200.25C290.02 199.067 285.968 196.254 284.118 195.337C274.73 212.818 260.215 232.352 248.128 248.001C255.438 245.376 263.173 243.33 270.61 241.045C272.958 240.324 275.658 239.462 278.04 238.931C288.628 235.897 299.26 233.029 309.935 230.328C313.278 229.497 319.465 227.774 322.685 227.292ZM270.195 187.412C262.125 183.194 251.805 178.177 243.156 174.965C240.683 187.249 237.105 196.451 231.566 207.704C237.316 204.39 243.123 201.176 248.985 198.063C255.813 194.514 263.183 190.633 270.195 187.412ZM204.685 224.008C201.749 222.484 193.766 218.598 190.68 217.881C189.131 225.081 187.332 230.916 184.241 237.675C186.907 235.88 190.584 233.093 193.13 231.56C196.932 228.967 200.784 226.449 204.685 224.008ZM152.282 284.715C165.435 274.65 176.929 264.435 187.978 252.01C189.758 250.007 194.232 245.172 195.593 243.117L195.528 242.765C190.082 246.511 184.713 250.368 179.424 254.333C177.27 255.933 173.533 258.61 171.75 260.423C170.276 261.923 167.85 265.478 166.508 267.283C164.162 270.383 161.74 273.423 159.245 276.4C158.293 277.53 152.53 283.895 152.255 284.65L152.282 284.715ZM196.791 208.763C198.972 209.508 200.684 210.2 202.811 211.105C207.041 213.114 210.255 214.758 214.278 217.145C219.015 209.013 223.614 200.688 226.995 191.882C227.65 190.176 230.93 181.86 230.64 180.484C218.575 189.921 208.129 198.449 196.791 208.763ZM330.443 220.088C344.665 203.886 358.218 187.766 368.898 168.884C369.428 167.948 372.193 162.966 372.31 162.287L371.923 162.302C352.273 166.636 332.82 173.098 313.968 180.119C306.92 182.744 299.94 186.02 293.185 188.545C299.715 192.719 305.995 197.27 311.993 202.176C320.053 209.012 323.438 212.738 330.443 220.088ZM342.263 222.668C353.115 220.251 364.005 217.997 374.928 215.909C378.253 215.274 385.525 213.718 388.688 213.411C399.88 211.259 411.325 209.699 422.588 207.966C427.545 207.204 434.4 206.678 439.083 205.737C435.218 201.543 431.715 197.629 427.525 193.695C414.913 181.856 399.278 170.526 384.038 162.334C378.028 178.379 354.245 210.391 342.263 222.668ZM234.6 160.395C235.043 149.472 234.7 139.097 230.361 128.855C229.92 127.815 228.383 123.864 227.409 123.481C214.053 130.693 203.73 138.705 192.519 148.808C197.722 149.9 202.905 151.09 208.064 152.378C217.548 154.917 225.348 157.524 234.6 160.395Z" fill="#B61D1C"/>
<path d="M292.403 245.895C295.595 245.024 298.793 244.175 301.998 243.346C304.133 248.99 306.74 266.002 307.558 272.297C314.298 324.057 306.475 376.673 284.968 424.233C281.215 432.563 269.905 455.342 263.77 461.46C248.315 462.055 232.406 460.912 217.037 459.275C174.092 454.702 112.962 442.492 80.71 412.55C71.3383 403.847 64.4535 392.55 64.0413 379.497C63.605 365.687 70.2598 352.85 78.5213 342.212C80.6743 339.44 83.1883 336.957 85.3068 334.175C87.373 333.452 94.1425 329.74 96.4973 328.527L120.774 316.008C122.382 315.178 128.238 311.96 129.712 311.8C124.664 315.717 118.792 319.475 113.647 323.397C101.441 332.705 85.6048 346.797 79.2008 360.955C99.6243 361.495 119.619 358.592 139.405 353.68C131.909 339.755 129.296 325.075 133.409 309.585C137.192 307.425 142.488 304.443 146.377 302.598C145.581 304.91 144.844 307.24 144.168 309.587C140.49 322.71 141.299 335.303 148.011 347.223C157.835 332.828 167.036 316.71 173.67 300.615C175.713 295.657 177.133 290.81 178.926 285.818C182.566 283.89 187.058 282.04 190.885 280.378C190.543 281.768 190.318 283.228 189.973 284.635C185.902 301.368 178.368 316.96 170.027 331.938C167.04 337.3 163.504 342.33 160.536 347.64C177.884 341.765 194.347 335.56 210.914 327.698C213.988 326.238 221.539 322.94 224.136 321.19C213.75 312.985 204.482 300.925 198.737 289.105C197.303 286.155 195.399 281.975 194.653 278.783C197.452 277.445 201.056 276.073 203.98 274.878C205.123 277.085 206.317 281.188 207.607 283.915C212.39 294.028 218.95 303.41 227.459 310.71C228.38 308.4 229.449 303.495 230.066 300.885C232.241 291.573 234.041 282.178 235.462 272.72C235.92 269.68 236.176 265.647 236.768 262.87C241.936 260.915 252.988 257.265 258.278 255.917C261.19 256.755 265.293 258.96 268.265 260.18C277.513 263.972 287.58 269.185 296.888 272.55C296.423 266.827 294.918 260.197 293.91 254.512C293.433 251.815 292.49 248.571 292.403 245.895ZM215.323 390.805C218.144 391.847 222.217 393.152 225.151 393.862C242.371 398.792 264.438 402.88 282.325 403.022C285.308 395.21 296.103 360.347 295.853 349.582C295.83 349.56 295.808 349.538 295.785 349.515C270.975 363.793 241.518 379.412 215.323 390.805ZM143.438 405.72C153.854 402.968 164.138 399.735 174.255 396.033C178.173 394.628 183.428 392.777 187.184 391.117C170.819 382.797 161.562 378.267 148.276 365.422C145.879 368.265 143.213 372.143 140.827 375.2C133.973 384.14 126.794 392.825 119.305 401.24C116.638 404.265 112.816 408.803 109.984 411.473C118.548 410.813 126.451 409.747 134.792 407.772C137.438 407.145 140.851 406.538 143.438 405.72ZM84.7453 402.165C88.0695 405.96 91.32 408.51 95.2985 411.538C99.146 407.97 102.72 403.913 106.245 400.015C113.046 392.473 119.629 384.735 125.985 376.812C127.896 374.428 132.898 368.485 134.356 366.168L134.263 365.805L133.634 365.832C128.021 366.707 122.164 368.068 116.352 368.983C101.874 371.263 89.9403 371.825 75.3948 371.455C73.6995 382.062 75.1313 389.382 81.5178 398.188C82.5305 399.562 83.6075 400.89 84.7453 402.165ZM233.628 328.168C229.604 340.208 226.049 350.388 220.719 362.04C218.829 366.158 216.849 370.23 214.779 374.26C213.895 376.013 212.076 379.372 211.435 381.017C222.724 375.95 233.889 370.615 244.922 365.013C257.943 358.633 270.828 351.343 283.598 344.443C269.568 342.44 257.92 340.128 244.906 334.043C241.012 332.223 237.237 329.86 233.628 328.168ZM291.668 281.992C287.998 280.065 283.65 278.288 279.78 276.7C268.948 272.253 258.335 266.935 247.541 262.462C246.759 267.142 246.268 271.88 245.572 276.578C244.715 282.21 243.713 287.822 242.569 293.405C241.682 297.807 240.711 302.19 239.657 306.552C239.119 308.772 238.163 312.06 237.837 314.177C246.448 309.872 258.09 303.128 266.29 297.983C271.835 294.688 277.328 291.298 282.76 287.818C285.423 286.123 289.21 283.842 291.668 281.992ZM298.388 290.215C281.065 301.77 263.22 312.52 244.909 322.427C247.885 324.205 251.223 325.525 254.438 326.837C267.14 331.427 284.568 335.17 298.125 334.642C298.585 328.935 300.48 293.1 298.388 290.215ZM183.638 444.02C185.841 444.367 189.089 444.785 191.191 445.245C203.584 447.04 215.886 448.97 228.403 449.73C238.285 450.33 248.756 451.285 258.643 450.987C263.753 443.147 273.168 426.47 276.388 417.552L276.23 417.255L275.943 417.263C270.325 419.503 265.055 422.093 259.233 424.348C247.136 428.92 234.779 432.767 222.227 435.872C214.473 437.772 206.68 439.508 198.853 441.078C194.177 441.988 188.131 442.92 183.638 444.02ZM261.15 412.165L260.87 412.098C258.715 411.595 256.205 411.327 253.993 411.025C235.661 408.517 219.001 403.383 201.63 397.17C195.528 406.775 188.7 415.9 181.207 424.465C177.978 428.18 174.649 431.54 171.393 435.163C188.018 431.908 204.778 429.81 221.23 425.217C232.038 422.335 251.17 416.925 261.15 412.165ZM112.918 421.953C116.096 423.76 120.633 425.65 124.06 427.128C132.403 430.623 141.293 433.468 149.952 436.07C151.031 436.395 152.295 436.73 153.406 436.922C164.932 427.302 174.375 416.645 183.37 404.65L183.259 404.277L182.541 404.245C160.873 412.535 135.986 419.803 112.918 421.953ZM219.31 335.253C200.918 344.165 177.099 353.863 157.419 359.475C161.721 364.16 166.173 367.217 171.418 370.747C178.453 374.767 189.467 381.072 197.094 383.837C204.912 371.54 211.822 356.118 217.242 342.568C217.8 341.173 219.516 336.988 219.577 335.628L219.31 335.253Z" fill="#D0D7DA"/>
<path d="M129.498 79.0133C133.016 73.1485 137.675 68.5493 143.535 65.0698C164.503 52.619 190.109 45.3743 213.53 39.5348C220.484 37.8338 227.484 36.3285 234.522 35.0203L234.554 35.3693C234.738 37.4295 234.642 39.349 234.703 41.4103C235.372 63.9235 239.503 87.382 249.42 107.757C250.525 110.027 251.988 112.25 252.89 114.575L240.05 112.634C236.031 105.008 234.435 97.6888 231.327 90.5078C225.514 96.5215 215.534 103.876 208.295 107.901C202.788 107.45 194.904 105.708 189.233 104.889C186.833 104.542 177.43 102.819 175.427 102.139C168.266 94.7608 161.967 85.9893 155.829 77.7378C154.482 75.9268 153.243 74.0585 151.769 72.342C145.252 75.6703 138.122 80.6705 138.291 88.6993C134.841 86.2513 131.894 82.4378 129.498 79.0133ZM182.375 67.271C193.314 69.8253 204.762 71.49 215.822 73.555C219.658 74.271 224.092 74.822 227.845 75.634C226.478 69.3755 225.702 62.896 224.981 56.5308C224.832 55.214 224.466 48.7685 224.102 47.9913L223.154 48.0338C213.378 50.4665 202.89 52.7278 193.302 55.7675C190.039 56.8018 170.645 62.8653 169.062 64.3425C170.458 65.1443 180.34 66.9655 182.375 67.271ZM210.625 93.833C214.818 90.9548 217.698 88.5835 221.632 85.3393C213.842 83.7145 205.972 82.5115 198.139 81.0825C187.751 79.1963 177.394 77.1423 167.073 74.9215C168.876 78.7628 188.374 102.637 192.28 104.066C195.925 103.768 207.188 96.184 210.625 93.833Z" fill="#D0D7DA"/>
<path d="M195.528 242.765L195.593 243.117C194.232 245.172 189.758 250.007 187.978 252.01C176.929 264.435 165.435 274.65 152.282 284.715L152.255 284.65C152.53 283.895 158.293 277.53 159.245 276.4C161.74 273.423 164.162 270.383 166.508 267.283C167.85 265.478 170.276 261.923 171.75 260.423C173.533 258.61 177.27 255.933 179.424 254.333C184.713 250.368 190.082 246.511 195.528 242.765Z" fill="#B61D1C" fill-opacity="0.01"/>
</svg>
