<svg width="512" height="512" viewBox="0 0 512 512" fill="none" xmlns="http://www.w3.org/2000/svg">
<g clip-path="url(#clip0_88_392)">
<path d="M255.042 185.924L402.28 185.946L441.392 185.944C448.417 185.943 459.952 185.582 466.447 186.668C475.235 188.138 483.35 192.297 489.677 198.571C498.257 207.128 503.05 218.768 502.98 230.886C502.882 239.057 500.495 247.037 496.087 253.918C492.77 259.093 486.79 266.153 482.795 271.165L461.022 298.595L387.762 390.788L323.7 471.43L305.567 494.263C302.537 498.09 299.072 503.02 295.665 506.378C286.555 515.355 271.71 513.96 263.45 504.935C260.832 502.08 259.117 498.518 258.515 494.693C258.18 492.65 258.095 490.57 257.997 488.505C257.46 477.255 257.575 465.975 257.355 454.717L256.302 379.668C256.18 371.003 256.257 362.32 256.02 353.655C255.875 348.355 255.635 343.048 255.612 337.745C255.6 335.97 255.722 334.155 255.717 332.378C255.715 331.945 255.462 331.968 255.055 331.873L255.757 331.565C256.1 330.18 255.977 324.883 255.98 323.13C255.982 314.948 255.78 306.788 255.752 298.593L255.042 185.924Z" fill="#32B479"/>
<path d="M255.055 331.872C240.268 332.232 223.986 331.875 209.047 331.872H116.659L71.965 331.883C64.9847 331.885 52.2175 332.257 45.8755 331.237C37.2972 329.805 29.344 325.84 23.0387 319.848C14.3539 311.708 9.55501 300.228 9.17564 288.355C8.63666 271.488 17.1529 262.01 26.8905 249.744L45.2097 226.656L105.691 150.569L182.278 54.0672L203.941 26.7873C207.061 22.8487 212.453 15.6287 215.664 12.2941C219.744 7.98004 225.408 5.51669 231.346 5.47314C237.372 5.4337 243.215 7.80262 247.581 11.9738C255.245 19.2956 253.86 28.1742 254.082 37.8727C254.355 50.231 254.477 62.5922 254.45 74.9537L255.042 185.923L255.752 298.592C255.78 306.787 255.982 314.948 255.98 323.13C255.977 324.883 256.1 330.18 255.757 331.565L255.055 331.872Z" fill="#3DD08D"/>
</g>
<defs>
<clipPath id="clip0_88_392">
<rect width="512" height="512" fill="white"/>
</clipPath>
</defs>
</svg>
