<svg width="451" height="512" viewBox="0 0 451 512" fill="none" xmlns="http://www.w3.org/2000/svg">
<path d="M142.368 64.415C165.702 53.9087 192.514 50.2279 217.482 48.3517C223.231 47.9199 230.769 48.5253 236.59 48.7424C258.627 49.5635 279.674 53.0191 300.25 62.2458C299.693 68.3973 304.828 79.9234 307.193 85.9129L303.687 85.9216C310.984 94.725 314.216 104.377 314.017 116.519C316.022 116.523 319.462 116.635 321.351 116.483L321.445 116.536C322.9 116.518 329.108 116.282 330.014 116.891C330.776 122.951 331.294 127.535 331.242 133.703L331.286 133.97C334.958 139.997 338.786 145.9 342.766 151.67C347.457 158.445 349.937 162.92 358.258 158.599C360.333 172.572 361.031 186.484 361.584 200.601C364.321 201.618 367.197 202.738 369.945 203.664C369.787 216.014 369.691 228.364 369.658 240.715C369.635 246.902 370.051 254.82 369.207 260.912C368.758 264.157 364.308 267.316 362.59 270.737C362.648 272.198 362.673 274.102 362.783 275.522C365.867 275.583 373.037 276.058 375.764 277.643L384.011 262.071C384.52 260.905 385.017 260.11 385.649 259.039C390.219 258.208 397.354 261.316 399.152 266.339L397.589 269.454C396.514 271.412 389.313 284.292 388.945 285.807C391.871 289.721 394.162 294.348 388.845 297.241C387.991 304.619 384.917 306.466 378.597 305.171C377.184 307.927 375.095 312.754 372.877 314.453L372.906 314.769C376.945 319.755 378.917 336.441 379.272 343.486C379.698 347.28 380.087 351.359 380.586 355.116C382.269 362.366 382.614 368.529 382.887 375.966C382.949 377.703 382.926 383.146 383.13 384.517C382.425 388.613 373.058 396.85 370.051 399.15C367.407 401.153 364.668 402.989 361.848 404.65C356.456 430.071 348.041 450.952 330.336 468.157C322.351 475.532 316.633 479.454 307.43 484.697C298.491 489.246 289.575 493.091 280.046 495.809C238.421 507.68 183.835 507.262 143.625 489.871L139.625 488.118C129.376 483.116 123.36 479.296 114.309 472.014C92.7135 452.127 84.7634 431.46 81.315 400.266C78.4095 398.107 75.6511 395.701 73.0636 393.07C71.5957 391.55 67.1183 386.756 67.0189 384.446C67.0054 375.296 67.333 363.888 69.5111 355.113L70.7334 343.455C70.9825 335.7 72.8763 324.549 75.4832 317.497C77.038 317.11 78.5232 316.388 80.009 315.727C83.1874 313.901 85.2755 311.775 83.4601 307.639L84.2858 306.761C84.4469 304.418 85.2491 295.304 84.6761 293.751C85.0808 287.499 85.1319 283.69 85.0307 277.421C85.0159 274.807 84.8783 272.047 84.7861 269.425C76.2653 261.696 74.6348 266.202 74.4137 250.958C74.3686 247.73 74.2618 244.502 74.0934 241.279C73.4308 228.712 72.5164 216.163 71.3508 203.643C74.2884 201.364 76.6377 199.908 79.7692 198.123C79.3651 183.65 79.3271 172.18 80.8935 157.73C87.6097 161.601 90.764 160.439 95.3758 154.013C99.4382 148.352 103.718 142.87 107.389 136.816L107.466 136.591C107.931 136.143 108.108 135.829 108.489 135.292C110.168 135.29 120.762 135.04 121.914 135.473C119.333 130.68 118.522 124.911 118.167 119.426C121.118 114.576 124.398 108.305 126.985 103.17C129.862 97.536 132.554 91.7823 135.054 85.9207L135.152 85.8445C137.185 80.3267 142.26 69.8734 142.368 64.415Z" fill="#37ABC8"/>
<path d="M142.367 64.415C165.702 53.9087 192.514 50.2279 217.482 48.3517C223.23 47.9199 230.768 48.5253 236.59 48.7424C258.626 49.5635 279.674 53.0191 300.249 62.2458C299.692 68.3973 304.828 79.9234 307.193 85.9129L303.687 85.9216C310.984 94.725 314.216 104.377 314.016 116.519C312.981 127.378 309.671 134.429 302.139 141.567C299.634 143.94 295.353 146.879 292.321 148.21C278.003 156.098 259.838 154.934 245.574 147.579C243.525 147.415 241.607 147.097 239.583 146.756C237.456 145.026 236.594 144.539 234.131 143.533C232.051 139.824 230.014 138.794 226.148 138.437C222.744 138.123 218.19 138.219 215.439 140.825C211.284 140.268 204.873 138.19 199.994 137.406C182.9 164.561 136.659 166.493 121.914 135.473C119.333 130.68 118.522 124.911 118.167 119.426C121.117 114.576 124.398 108.305 126.985 103.17C129.862 97.536 132.553 91.7823 135.054 85.9207L135.151 85.8445C137.185 80.3267 142.26 69.8734 142.367 64.415Z" fill="#EEEFEE"/>
<path d="M135.151 85.8445C137.933 84.4659 140.19 82.8338 143.164 81.6206C155.719 76.4992 170.262 76.0884 182.727 81.6902C185.268 82.8501 187.712 84.2667 190.03 85.923C196.832 91.3833 201.582 97.6861 203.789 107.014C206.122 117.176 205.609 126.578 200.888 135.752C200.601 136.311 200.303 136.862 199.994 137.406C182.9 164.561 136.659 166.493 121.914 135.473C119.333 130.68 118.522 124.911 118.167 119.426C121.117 114.576 124.398 108.305 126.985 103.17C129.862 97.536 132.553 91.7823 135.054 85.9207L135.151 85.8445Z" fill="#EEEFEE"/>
<path d="M139.299 105.782C146.248 105.163 152.325 111.054 152.875 118.943C153.425 126.832 148.24 133.735 141.292 134.365C134.336 134.996 128.248 129.103 127.698 121.206C127.147 113.309 132.342 106.402 139.299 105.782Z" fill="#D3E2E6"/>
<path d="M145.198 119.916C146.799 119.313 148.53 120.285 149.081 122.096C149.631 123.907 148.796 125.884 147.208 126.53C146.163 126.955 144.997 126.71 144.156 125.888C143.315 125.066 142.929 123.794 143.144 122.557C143.36 121.322 144.144 120.312 145.198 119.916Z" fill="#EEEFEE"/>
<path d="M142.367 64.415C165.702 53.9087 192.514 50.2279 217.482 48.3517C223.23 47.9199 230.769 48.5253 236.59 48.7424C258.627 49.5635 279.674 53.0191 300.25 62.2458C299.693 68.3973 304.828 79.9234 307.193 85.9129L303.687 85.9216C297.311 78.8303 288.704 74.8228 279.936 73.5194C265.437 71.2534 250.746 75.7248 239.19 85.9209C232.435 92.5446 226.963 101.852 226.581 112.267L226.36 112.492C225.419 112.756 205.948 107.759 203.789 107.014C201.582 97.6861 196.832 91.3833 190.03 85.923C187.712 84.2667 185.268 82.8501 182.727 81.6902C170.262 76.0884 155.72 76.4992 143.164 81.6206C140.19 82.8338 137.933 84.4659 135.151 85.8445C137.185 80.3267 142.26 69.8734 142.367 64.415Z" fill="#37ABC8"/>
<path d="M190.03 85.923L239.19 85.9209C232.435 92.5446 226.963 101.852 226.581 112.267L226.36 112.492C225.419 112.756 205.948 107.759 203.789 107.014C201.582 97.6861 196.832 91.3833 190.03 85.923Z" fill="#AEDDE9"/>
<path d="M203.789 107.014C205.948 107.759 225.419 112.756 226.36 112.492L226.581 112.267C225.064 127.781 234.266 140.376 245.575 147.579C243.525 147.415 241.607 147.097 239.583 146.756C237.457 145.026 236.594 144.539 234.131 143.533C232.051 139.824 230.014 138.794 226.148 138.437C222.744 138.122 218.19 138.219 215.439 140.825C211.284 140.268 204.873 138.19 199.995 137.406C200.303 136.862 200.601 136.311 200.889 135.752C205.609 126.578 206.122 117.176 203.789 107.014Z" fill="#D3E2E6"/>
<path d="M236.235 114.292C237.251 107.235 242.728 102.133 249.023 102.381C255.318 102.628 260.47 108.147 261.054 115.267C261.503 120.754 259.119 126.042 254.934 128.835C250.75 131.628 245.519 131.422 241.514 128.307C237.509 125.193 235.451 119.731 236.235 114.292Z" fill="#D3E2E6"/>
<path d="M236.235 114.292C237.251 107.235 242.728 102.133 249.023 102.381C255.318 102.628 260.47 108.147 261.054 115.267L260.78 115.687C258.051 116.19 238.718 115.7 236.235 114.292Z" fill="#999999"/>
<path d="M253.441 116.45C255.05 115.87 256.769 116.881 257.278 118.708C257.789 120.534 256.898 122.484 255.289 123.062C253.68 123.64 251.964 122.629 251.454 120.804C250.945 118.978 251.835 117.029 253.441 116.45Z" fill="#EEEFEE"/>
<path d="M361.584 200.601C364.321 201.618 367.197 202.738 369.945 203.664C369.787 216.014 369.691 228.364 369.658 240.715C369.635 246.902 370.051 254.82 369.207 260.912C368.758 264.157 364.308 267.316 362.59 270.737C362.648 272.198 362.673 274.102 362.783 275.522C365.867 275.583 373.037 276.058 375.764 277.643L384.011 262.071C384.52 260.905 385.017 260.11 385.649 259.039C390.219 258.208 397.354 261.316 399.152 266.339L397.589 269.454C396.514 271.412 389.313 284.292 388.945 285.807C391.871 289.721 394.162 294.348 388.845 297.241C387.991 304.619 384.917 306.466 378.597 305.171C377.184 307.927 375.095 312.754 372.877 314.453L372.906 314.769C364.554 317.544 353.946 320.054 345.423 321.871C307.187 329.804 268.243 332.434 229.449 329.704C227.371 299.178 228.967 268.47 234.196 238.432L275.027 227.995L361.702 205.79L361.584 200.601Z" fill="#EE9225"/>
<path d="M385.648 259.039C390.219 258.208 397.354 261.316 399.151 266.339L397.589 269.454C396.514 271.412 389.313 284.292 388.945 285.807C391.871 289.721 394.161 294.348 388.845 297.241C387.991 304.619 384.917 306.466 378.597 305.171C377.183 307.927 375.095 312.754 372.877 314.453C370.826 314.922 369.591 315.01 367.569 314.257C364.977 313.292 361.612 311.718 360.9 308.394C360.405 306.089 361.479 304.522 362.508 302.701C363.229 301.429 364.237 300.013 364.102 298.562C363.595 290.887 363.157 283.207 362.783 275.522C365.867 275.583 373.037 276.058 375.764 277.643L384.011 262.071C384.52 260.905 385.017 260.11 385.648 259.039Z" fill="black"/>
<path d="M362.783 275.522C365.867 275.583 373.037 276.058 375.764 277.643C376.342 278.103 377.344 278.377 378.034 278.693C381.24 280.163 383.556 282.029 384.576 286.038C385.744 290.615 381.793 293.501 378.333 294.204C374.665 294.933 371.408 293.907 368.218 291.875C367.432 293.416 365.401 298.031 364.102 298.562C363.595 290.887 363.157 283.207 362.783 275.522Z" fill="#F5D2A2"/>
<path d="M384.293 294.442C385.54 292.059 387.581 287.919 388.945 285.807C391.871 289.721 394.161 294.348 388.845 297.241C387.991 304.619 384.917 306.466 378.597 305.171C380.409 301.792 382.205 298.399 383.984 294.997L384.293 294.442Z" fill="#F5D2A2"/>
<path d="M383.984 294.997L384.294 294.443C385.678 295.467 387.168 296.153 388.629 297.024C386.611 296.599 385.773 296.314 383.984 294.997Z" fill="#D9BE9C"/>
<path d="M385.648 259.039C390.219 258.208 397.354 261.316 399.151 266.339L397.589 269.454C397.046 264.508 387.864 260.268 384.011 262.071C384.52 260.905 385.017 260.11 385.648 259.039Z" fill="#999999"/>
<path d="M362.59 270.737C362.648 272.198 362.673 274.102 362.783 275.522C363.157 283.207 363.595 290.887 364.103 298.562C364.238 300.013 363.23 301.429 362.508 302.701C358.643 295.367 359.21 278.209 362.59 270.737Z" fill="#37ABC8"/>
<path d="M361.583 200.601C364.321 201.618 367.197 202.738 369.945 203.664C367.23 204.353 364.391 205.03 361.702 205.79L361.583 200.601Z" fill="#C8781F"/>
<path d="M71.3506 203.643C74.2881 201.364 76.6375 199.908 79.7689 198.123C79.8822 200.686 80.0187 203.247 80.1781 205.807L214.054 238.434C218.024 263.076 220.319 288.15 219.493 313.205C219.329 318.145 219.205 324.924 218.735 329.702C172.135 333.17 125.343 328.456 80.0087 315.727C83.1872 313.901 85.2753 311.775 83.4598 307.639L84.2856 306.761C84.4466 304.418 85.2489 295.304 84.6759 293.751C85.0805 287.499 85.1317 283.69 85.0304 277.421C85.0157 274.807 84.8781 272.047 84.7858 269.425C76.265 261.696 74.6346 266.202 74.4134 250.958C74.3683 247.73 74.2615 244.502 74.0932 241.279C73.4306 228.712 72.5161 216.163 71.3506 203.643Z" fill="#EE9225"/>
<path d="M84.7859 269.425C89.3514 274.611 89.9063 281.024 89.9396 288.048C89.9714 294.796 89.1037 302.153 84.2856 306.761C84.4467 304.418 85.249 295.304 84.676 293.751C85.0806 287.499 85.1317 283.69 85.0305 277.421C85.0158 274.807 84.8782 272.047 84.7859 269.425Z" fill="#37ABC8"/>
<path d="M71.3506 203.643C74.2881 201.364 76.6375 199.908 79.7689 198.123C79.8822 200.686 80.0187 203.247 80.1781 205.807C77.4869 205.022 74.1137 204.313 71.3506 203.643Z" fill="#C8781F"/>
<path d="M372.906 314.769C376.944 319.755 378.917 336.441 379.272 343.486C379.698 347.28 380.087 351.359 380.586 355.116C382.269 362.366 382.614 368.529 382.886 375.966C382.949 377.703 382.926 383.146 383.13 384.517C382.425 388.613 373.058 396.85 370.051 399.15C367.407 401.153 364.668 402.989 361.847 404.65C336.768 418.917 300.077 421.506 272.761 416.678C266.125 415.506 254.75 413.467 248.971 409.47C245.911 407.356 241.823 401.953 239.68 398.692C234.52 391.8 233.37 380.399 232.936 371.552C232.34 366.856 232.049 361.526 231.319 356.963C228.9 354.358 229.291 333.902 229.449 329.704C268.243 332.434 307.187 329.803 345.422 321.871C353.945 320.054 364.553 317.544 372.906 314.769Z" fill="#EEEFEE"/>
<path d="M372.906 314.769C376.944 319.755 378.917 336.441 379.272 343.486C379.698 347.28 380.087 351.359 380.586 355.116C335.373 368.763 279.757 374.244 232.936 371.552C232.34 366.856 232.049 361.526 231.319 356.963C228.9 354.358 229.291 333.902 229.449 329.704C268.243 332.434 307.187 329.803 345.422 321.871C353.945 320.054 364.553 317.544 372.906 314.769Z" fill="#EEEFEE"/>
<path d="M231.319 356.963C234.499 356.975 239.841 357.683 243.278 357.9C250.739 358.355 258.211 358.549 265.681 358.475C303.889 357.775 341.941 352.754 379.272 343.486C379.698 347.28 380.087 351.359 380.586 355.116C335.374 368.763 279.757 374.244 232.936 371.552C232.34 366.856 232.049 361.526 231.319 356.963Z" fill="#EE9225"/>
<path d="M239.681 398.692C286.229 403.876 337.733 396.194 383.13 384.517C382.425 388.613 373.058 396.85 370.051 399.15C367.407 401.153 364.668 402.989 361.848 404.65C336.768 418.917 300.077 421.506 272.762 416.678C266.125 415.506 254.751 413.467 248.971 409.47C245.912 407.356 241.823 401.953 239.681 398.692Z" fill="#EE9225"/>
<path d="M80.009 315.727C125.343 328.456 172.135 333.17 218.735 329.702C218.837 332.387 219.037 336.457 219.066 339.062C219.093 341.561 218.201 355.498 216.842 356.97C216.218 361.783 215.892 366.717 215.3 371.554C214.726 380.109 213.776 392.067 208.657 398.697C206.471 401.887 202.664 407.12 199.759 409.237C193.432 413.845 179.979 416.077 172.634 417.197C144.088 421.558 106.19 418.177 81.315 400.266C78.4095 398.107 75.6511 395.7 73.0636 393.07C71.5957 391.55 67.1183 386.756 67.0189 384.446C67.0054 375.296 67.333 363.888 69.5111 355.113L70.7334 343.455C70.9825 335.7 72.8763 324.549 75.4832 317.497C77.038 317.11 78.5232 316.388 80.009 315.727Z" fill="#EEEFEE"/>
<path d="M80.0086 315.727C125.343 328.456 172.135 333.17 218.735 329.702C218.837 332.387 219.036 336.457 219.065 339.062C219.092 341.561 218.201 355.498 216.841 356.97C216.218 361.783 215.892 366.717 215.299 371.554C169.804 374.336 113.146 368.572 69.5107 355.113L70.733 343.455C70.9822 335.7 72.876 324.549 75.4829 317.497C77.0377 317.11 78.5228 316.388 80.0086 315.727Z" fill="#EEEFEE"/>
<path d="M70.733 343.455C83.5695 346.692 96.5069 349.387 109.519 351.536C134.613 355.944 159.956 358.268 185.347 358.492C192.095 358.509 198.843 358.299 205.58 357.867C209.073 357.633 213.518 357.039 216.841 356.97C216.218 361.783 215.892 366.717 215.299 371.554C169.804 374.336 113.146 368.572 69.5107 355.113L70.733 343.455Z" fill="#EE9225"/>
<path d="M67.019 384.446C109.329 396.585 165.536 403.458 208.657 398.697C206.471 401.887 202.664 407.12 199.759 409.237C193.432 413.845 179.979 416.077 172.635 417.197C144.088 421.558 106.191 418.177 81.3151 400.266C78.4096 398.107 75.6512 395.7 73.0637 393.07C71.5958 391.55 67.1184 386.756 67.019 384.446Z" fill="#EE9225"/>
<path d="M314.017 116.519C316.022 116.523 319.462 116.635 321.351 116.483L321.445 116.536C322.9 116.518 329.108 116.282 330.014 116.891C330.776 122.951 331.294 127.535 331.242 133.703L331.286 133.97C331.265 139.585 331.103 142.36 329.891 147.897C327.22 159.599 323.12 170.22 312.72 175.284L273.83 170.938C271.943 170.724 258.949 169.091 257.662 169.299L257.507 169.094C254.175 163.791 247.366 159.947 242.266 157.348C244.226 153.17 242.239 149.686 239.583 146.756C241.607 147.097 243.526 147.415 245.575 147.579C259.839 154.934 278.003 156.098 292.321 148.21C295.353 146.879 299.635 143.94 302.139 141.567C309.671 134.429 312.982 127.378 314.017 116.519Z" fill="#AEDDE9"/>
<path d="M314.017 116.519C316.022 116.523 319.462 116.635 321.351 116.483L321.445 116.536C322.899 116.518 329.107 116.282 330.014 116.891C330.776 122.951 331.294 127.535 331.242 133.703L331.286 133.97C331.265 139.585 331.103 142.36 329.891 147.897C328.58 148.342 321.239 148.125 319.385 148.159C310.454 148.323 301.226 147.967 292.321 148.21C295.353 146.879 299.634 143.94 302.139 141.567C309.671 134.429 312.982 127.378 314.017 116.519Z" fill="#D3E2E6"/>
<path d="M321.444 116.536C322.899 116.518 329.107 116.282 330.013 116.891C330.776 122.951 331.294 127.535 331.242 133.703C329.355 131.32 323.022 119.576 321.444 116.536Z" fill="#EACBCB"/>
<path d="M108.489 135.292C110.168 135.29 120.762 135.04 121.914 135.473C136.66 166.493 182.9 164.561 199.995 137.406C204.873 138.19 211.284 140.268 215.439 140.825L212.862 144.653C208.036 147.303 204.313 151.068 204.707 157.789L204.286 158.07C201.082 162.628 196.241 170.117 191.105 171.32L191.002 171.438C190.055 171.185 180.882 171.966 179.378 172.073L145.411 174.224C141.925 174.452 131.475 175.612 128.5 175.036C114.071 172.239 108.536 150.931 107.389 136.816L107.466 136.591C107.931 136.143 108.108 135.829 108.489 135.292Z" fill="#AEDDE9"/>
<path d="M191.105 171.32C192.062 164.581 198.781 159.456 204.286 158.07C201.082 162.628 196.241 170.117 191.105 171.32Z" fill="#EEEFEE"/>
<path d="M215.439 140.825C218.19 138.219 222.744 138.123 226.148 138.437C230.014 138.794 232.051 139.824 234.131 143.533C236.594 144.539 237.457 145.026 239.583 146.756C242.239 149.686 244.226 153.17 242.266 157.348C247.366 159.947 254.175 163.791 257.506 169.094L257.662 169.299C261.509 175.966 259.51 181.249 253.965 185.453C250.891 187.786 247.468 187.75 243.985 186.921C238.084 185.142 232.747 181.723 226.61 181.396L225.984 181.273C218.772 181.036 213.219 184.382 206.251 186.099C204.848 186.412 203.49 186.644 202.062 186.676C194.105 186.856 189.72 179.926 191.002 171.438L191.105 171.32C196.241 170.117 201.081 162.628 204.286 158.07L204.707 157.789C204.312 151.068 208.036 147.303 212.861 144.653L215.439 140.825Z" fill="#F5D2A2"/>
<path d="M215.439 140.825C218.191 138.219 222.744 138.123 226.149 138.437C230.014 138.794 232.051 139.824 234.132 143.533C236.594 144.539 237.457 145.026 239.583 146.756C242.239 149.686 244.226 153.17 242.266 157.348L241.641 158.415C234.659 166.949 209.173 169.642 204.707 157.789C204.313 151.068 208.036 147.303 212.862 144.653L215.439 140.825Z" fill="black"/>
<path d="M215.439 140.825C218.191 138.219 222.744 138.123 226.149 138.437C230.014 138.794 232.051 139.824 234.132 143.533C227.148 141.041 219.612 141.438 212.862 144.653L215.439 140.825Z" fill="#37ABC8"/>
<path d="M242.266 157.348C247.366 159.947 254.175 163.791 257.507 169.094C247.423 168.2 247.277 167.949 241.641 158.415L242.266 157.348Z" fill="#EEEFEE"/>
<path d="M206.251 186.099C213.219 184.382 218.772 181.036 225.984 181.273C225.483 188.618 224.446 197.904 225.386 205.027C223.081 207.864 219.045 212.371 215.472 212.135C205.037 211.446 204.208 194.22 206.251 186.099Z" fill="#EEEFEE"/>
<path d="M226.61 181.396C232.747 181.723 238.084 185.142 243.985 186.921C244.608 194.142 245.169 198.783 244.109 206.038C241.759 209.178 238.965 209.772 235.565 211.088C232.552 210.326 229.771 209.09 227.722 206.298C226.901 205.195 226.325 203.884 226.044 202.475C225.144 197.968 226.277 186.477 226.61 181.396Z" fill="#EEEFEE"/>
<path d="M78.2446 60.7374C93.2207 50.1352 111.955 44.9418 128.467 54.4971C133.284 54.5188 141.546 58.2609 142.367 64.415C142.26 69.8734 137.185 80.3267 135.151 85.8445L135.054 85.9207C132.554 91.7823 129.862 97.536 126.985 103.17C124.398 108.305 121.118 114.576 118.167 119.426C118.522 124.911 119.333 130.68 121.914 135.473C120.762 135.04 110.168 135.29 108.489 135.292C108.108 135.829 107.931 136.143 107.466 136.591L107.389 136.816C103.718 142.87 99.438 148.352 95.3757 154.013C90.7639 160.439 87.6096 161.601 80.8934 157.73C77.7782 156.098 76.6648 155.687 74.6332 152.54C67.9988 149.291 61.4788 142.234 57.9999 135.109C52.0053 122.833 51.5875 109.923 54.7635 96.6781C49.8077 92.383 56.3043 79.6984 59.1939 75.8501C61.8365 72.3307 64.0212 69.9394 67.8454 68.3541C70.0956 68.213 70.7272 68.4327 71.901 70.6393C73.4486 67.9389 76.4021 63.0994 78.2446 60.7374Z" fill="#585858"/>
<path d="M128.467 54.4971C133.285 54.5188 141.546 58.2609 142.367 64.415C142.26 69.8734 137.185 80.3267 135.151 85.8445L135.054 85.9207C132.554 91.7822 129.862 97.536 126.985 103.17C124.398 108.305 121.118 114.576 118.167 119.426C118.522 124.911 119.333 130.68 121.914 135.473C120.762 135.04 110.168 135.29 108.489 135.292C108.108 135.829 107.931 136.143 107.466 136.591L107.389 136.816C103.718 142.87 99.4381 148.352 95.3758 154.013C90.7639 160.439 87.6096 161.601 80.8935 157.73C77.7782 156.098 76.6649 155.687 74.6333 152.54C85.7048 147.833 130.482 66.769 128.467 54.4971Z" fill="#950000"/>
<path d="M111.438 103.278L126.985 103.17C124.398 108.305 121.118 114.576 118.167 119.426C118.522 124.911 119.333 130.68 121.914 135.473C120.762 135.04 110.168 135.29 108.489 135.292C108.108 135.829 107.931 136.143 107.466 136.591C105.49 126.559 108.215 112.863 111.438 103.278Z" fill="#EACBCB"/>
<path d="M108.489 135.292C111.83 130.096 115.058 124.805 118.167 119.426C118.522 124.911 119.333 130.68 121.914 135.473C120.762 135.04 110.168 135.29 108.489 135.292Z" fill="#D3E2E6"/>
<path d="M111.438 103.278C114.742 95.5371 118.824 88.753 126.645 86.5511C129.478 85.7536 132.167 85.8985 135.054 85.9207C132.554 91.7823 129.862 97.536 126.985 103.17L111.438 103.278Z" fill="#D49898"/>
<path d="M67.8452 68.3541C70.0954 68.213 70.727 68.4327 71.9008 70.6393C73.7892 79.7543 62.5949 99.5809 54.7633 96.6781C49.8074 92.383 56.3041 79.6984 59.1936 75.8501C61.8363 72.3307 64.021 69.9394 67.8452 68.3541Z" fill="#950000"/>
<path d="M314.235 53.7291C326.351 47.6663 339.237 48.1084 351.487 53.5448C355.637 55.4111 359.59 57.7944 363.277 60.6508C365.472 64.2041 368.097 69.6801 370.007 73.4847C370.462 70.5885 371 69.5872 373.584 69.1205C378.626 70.5019 382.24 75.3657 384.84 80.1981C387.228 84.6334 390.938 93.7611 386.767 98.0251C389.527 111.75 388.774 124.394 382.178 136.748C378.653 143.351 371.674 150.574 365.25 153.279C363.084 156.562 361.502 157.001 358.258 158.599C349.936 162.92 347.457 158.445 342.766 151.67C338.786 145.9 334.958 139.997 331.285 133.97L331.242 133.703C331.294 127.535 330.776 122.951 330.013 116.891C329.107 116.282 322.899 116.518 321.444 116.536L321.351 116.483C319.462 116.635 316.022 116.523 314.016 116.519C314.216 104.377 310.984 94.725 303.687 85.9216L307.193 85.9129C304.828 79.9234 299.692 68.3973 300.249 62.2458C302.089 56.8396 309.498 53.6767 314.235 53.7291Z" fill="#585858"/>
<path d="M300.249 62.2458C302.089 56.8396 309.498 53.6767 314.235 53.7291C312.759 63.66 334.187 105.266 339.8 115.663C343.616 122.783 347.644 129.754 351.875 136.564C354.615 140.93 361.13 151.34 365.25 153.279C363.084 156.562 361.502 157.001 358.258 158.599C349.936 162.92 347.457 158.445 342.766 151.67C338.786 145.9 334.958 139.997 331.285 133.97L331.242 133.703C331.294 127.535 330.776 122.951 330.013 116.891C329.107 116.282 322.899 116.518 321.444 116.536L321.351 116.483C319.462 116.635 316.022 116.523 314.016 116.519C314.216 104.377 310.984 94.725 303.687 85.9216L307.193 85.9129C304.828 79.9234 299.692 68.3973 300.249 62.2458Z" fill="#950000"/>
<path d="M307.193 85.9129C321.727 86.2241 327.345 103.126 330.013 116.891C329.107 116.282 322.899 116.518 321.444 116.536L321.351 116.483C319.462 116.635 316.022 116.523 314.016 116.519C314.216 104.377 310.984 94.725 303.687 85.9216L307.193 85.9129Z" fill="#D49898"/>
<path d="M303.687 85.9216L307.193 85.9129C309.955 92.8895 312.986 99.7246 316.278 106.398C317.822 109.546 319.946 113.407 321.351 116.483C319.462 116.635 316.022 116.523 314.016 116.519C314.216 104.377 310.984 94.725 303.687 85.9216Z" fill="#AEDDE9"/>
<path d="M373.584 69.1205C378.626 70.5019 382.24 75.3657 384.84 80.1981C387.228 84.6334 390.938 93.7611 386.767 98.0251C384.252 98.7969 381.677 97.3142 379.806 95.4706C374.523 90.2555 369.939 81.6123 370.007 73.4848C370.462 70.5885 371.001 69.5872 373.584 69.1205Z" fill="#950000"/>
<path d="M67.8452 68.3541C75.7321 52.6992 85.1555 38.5191 97.2421 26.7113C103.837 20.2686 108.489 17.4066 117.023 14.9119C133.081 10.218 149.744 8.12352 166.257 6.69797C192.927 4.5416 219.676 3.91425 246.402 4.81832C267.252 5.49781 288.65 6.95862 309.276 10.3322C316.947 11.5871 334.65 15.1586 340.939 19.8301C353.948 29.4907 367.546 53.5082 373.584 69.1205C371 69.5872 370.462 70.5885 370.007 73.4847C368.097 69.6801 365.472 64.2041 363.277 60.6508C360.372 53.8928 346.131 31.7011 340.32 28.0911C331.25 22.4571 313.757 19.1032 303.5 17.4069C284.29 14.4209 264.957 12.5471 245.579 11.7928C221.512 10.6577 197.408 10.961 173.368 12.7013C153.617 14.238 124.465 17.2251 106.655 27.9786C100.455 31.7221 81.7884 53.6597 78.2444 60.7374C76.402 63.0994 73.4484 67.9389 71.9009 70.6392C70.727 68.4327 70.0954 68.213 67.8452 68.3541Z" fill="#353434"/>
<path d="M47.5803 267.731L18.3832 205.841L9.72436 187.564C7.72041 183.345 3.59592 176.676 4.71662 171.951C5.63203 168.092 11.4252 165.807 14.5426 167.064C16.5778 167.884 17.6606 168.997 18.8024 171.051C20.6959 174.508 22.3374 178.201 24.0362 181.799L33.4557 201.75C42.6768 221.287 52.3987 241.284 61.3453 260.941L61.0103 261.059C56.9505 259.827 49.3483 263.192 47.5803 267.731Z" fill="#D1E161"/>
<path d="M385.648 259.039L417.514 198.788L427.18 180.531C429.009 177.075 430.927 173.061 433.06 169.966C435.562 166.335 440.525 166.449 443.726 168.773C446.644 170.893 447.265 174.593 445.758 178.071C444.104 181.698 442.14 185.209 440.273 188.723L430.31 207.497L399.151 266.339C397.354 261.316 390.219 258.208 385.648 259.039Z" fill="#D1E161"/>
<path d="M47.5801 267.731C49.3481 263.192 56.9503 259.827 61.0101 261.059L61.3451 260.941C61.8874 261.991 62.4454 263.041 62.9413 264.119C64.1324 266.691 68.7777 277.108 70.0247 278.988C74.4458 277.454 80.4447 277.053 85.0303 277.421C85.1315 283.69 85.0804 287.499 84.6758 293.751C84.2275 298.399 83.9276 298.97 79.9118 300.183L83.4597 307.639C85.2752 311.775 83.187 313.901 80.0086 315.727C78.5228 316.388 77.0376 317.11 75.4828 317.497C69.5868 317.869 68.4759 312.141 66.1006 306.945C60.0942 308.422 56.6624 306.039 56.0333 299.032C55.3473 298.628 54.6178 298.225 54.0568 297.616C53.2855 296.795 52.8395 295.655 52.82 294.454C52.7722 291.538 54.8908 288.843 56.5082 286.819C56.4107 286.036 49.8126 272.478 48.9383 270.645C48.4783 269.678 48.0255 268.706 47.5801 267.731Z" fill="black"/>
<path d="M70.0248 278.988C74.4458 277.454 80.4447 277.053 85.0304 277.421C85.1316 283.69 85.0805 287.499 84.6758 293.751C84.2275 298.399 83.9276 298.97 79.9118 300.183C79.1198 298.369 78.0864 296.321 77.2279 294.516C73.0234 296.148 66.5652 296.585 63.9196 291.354C61.6507 286.869 64.8674 283.065 68.0877 280.887C69.0114 280.262 69.7217 280.123 70.0248 278.988Z" fill="#F5D2A2"/>
<path d="M56.5084 286.819C58.0112 289.606 59.5968 293.159 60.9604 296.092L61.1483 296.498L66.1007 306.945C60.0943 308.422 56.6626 306.039 56.0335 299.032C55.3474 298.628 54.6179 298.225 54.0569 297.616C53.2857 296.795 52.8397 295.655 52.8201 294.454C52.7723 291.538 54.891 288.843 56.5084 286.819Z" fill="#F5D2A2"/>
<path d="M60.9606 296.092L61.1484 296.498C59.3002 297.906 58.4144 298.187 56.3423 298.838C57.6928 297.897 59.5115 296.92 60.9606 296.092Z" fill="#D9BE9C"/>
<path d="M47.5801 267.731C49.3481 263.192 56.9503 259.827 61.0101 261.059L61.3451 260.941C61.8874 261.991 62.4454 263.041 62.9413 264.119C59.0176 262.186 50.3503 265.914 48.9383 270.645C48.4783 269.678 48.0255 268.706 47.5801 267.731Z" fill="#999999"/>
<path d="M114.309 472.014C123.36 479.296 129.376 483.116 139.624 488.118L141.312 490.369C131.307 492.528 126.411 498.117 118.392 504.572C111.53 510.098 103.257 515.893 97.2269 505.696C93.2772 505.084 91.5977 501.963 91.2107 497.584C90.3709 488.075 100.506 481.138 106.448 476.677C108.568 475.084 111.832 472.361 114.309 472.014Z" fill="#F5D2A2"/>
<path d="M330.336 468.157C337.394 472.93 354.448 486.999 349.049 499.115C347.686 502.175 341.212 506.672 338.198 507.468C334.972 508.317 331.653 506.885 328.993 504.813C321.548 499.014 316.145 488.12 307.43 484.696C316.633 479.454 322.351 475.532 330.336 468.157Z" fill="#F5D2A2"/>
</svg>
