<svg width="514" height="512" viewBox="0 0 514 512" fill="none" xmlns="http://www.w3.org/2000/svg">
<g clip-path="url(#clip0_88_131)">
<path d="M0 0H514V512H0V0Z" fill="#007ACC"/>
<path d="M386.636 233.161C388.904 232.908 392.429 233.138 394.775 233.142C404.437 233.161 414.839 233.881 423.851 237.616C427.456 239.109 436.216 243.596 439.348 245.93C446.817 251.493 457.227 262.363 460.842 270.839C457.972 272.917 455.048 275.465 452.121 277.386C446.981 280.758 441.846 284.102 436.759 287.557C432.641 290.355 428.03 292.278 424.128 295.519C417.592 285.116 410.965 277.054 398.043 275.834C389.959 274.84 383.406 275.564 376.735 280.298C368.321 286.271 368.078 303.257 374.99 310.203C384.935 320.294 399.823 324.477 412.1 330.334C429.511 338.64 450.027 348.094 462.262 363.37C474.747 378.955 476.599 398.399 474.7 417.507C473.127 433.319 464.818 445.548 453.037 455.708C431.154 473.727 402.294 475.043 375.248 472.159C360.274 469.984 343.843 462.194 331.345 453.538C327.174 450.651 321.12 444.038 317.75 440.101C313.944 435.652 311.014 429.279 307.281 424.345C315.418 419.214 324.285 414.321 332.596 409.45C337.027 406.852 342.372 404.508 346.687 401.698C349.706 406.178 357.947 415.931 361.941 419.436C371.204 427.376 385.32 431.454 397.22 430.501C412.925 429.246 428.309 422.322 426.628 404.264C426.102 393.733 421.416 390.613 413.285 385.402C404.484 379.761 396.356 376.813 386.827 372.577C378.657 368.984 370.637 365.058 362.785 360.808C356.989 357.666 353.001 355.508 347.856 351.158C330.026 336.075 323.585 323.375 322.413 299.459C320.959 269.746 337.767 246.718 365.879 236.763C373.608 234.026 378.527 233.533 386.636 233.161Z" fill="#FEFEFE"/>
<path d="M111.346 235.523L239.234 235.488C257.449 235.49 275.91 235.677 294.096 235.462L294.113 278.746C271.754 278.259 248.875 279.004 226.462 278.624C226.929 320.205 226.529 362.711 226.522 404.364L226.52 447.396C226.521 454.768 226.276 463.936 226.645 471.093C222.226 470.757 217.355 470.96 212.907 470.882C201.747 470.691 189.893 471.27 178.782 470.583C178.287 465.654 178.573 454.854 178.577 449.64L178.59 409.838L178.605 278.716C156.205 278.334 133.307 278.791 110.811 278.608L111.346 235.523Z" fill="#FEFEFE"/>
</g>
<defs>
<clipPath id="clip0_88_131">
<rect width="514" height="512" fill="white"/>
</clipPath>
</defs>
</svg>
