<svg width="507" height="512" viewBox="0 0 507 512" fill="none" xmlns="http://www.w3.org/2000/svg">
<g clip-path="url(#clip0_88_365)">
<path d="M50.9456 3H455.636C455.706 3.02107 455.775 3.04214 455.848 3.06321C474.225 5.73592 490.45 16.0141 499.67 32.3204C501.996 36.4358 506.346 46.4938 506.327 51.4918C506.403 52.682 506.301 53.6005 507 54.5047V463.452L506.194 464.54C507.155 468.196 503.283 478.029 501.658 481.65C494.369 497.883 479.074 509.852 461.787 513.748C460.577 514.02 459.72 514.346 458.472 514.39L457.83 515H50.3662C49.1509 514.498 47.9747 514.349 46.68 514.112C29.8632 509.867 16.8555 501.691 7.8511 486.41C3.47286 478.983 1.80367 472.371 0 464.031V53.8666L0.402164 53.6532C0.211868 47.8705 5.33832 35.3363 8.56457 30.241C14.8988 20.2372 24.3513 11.8147 35.4132 7.39204C40.6517 5.29773 45.551 4.2698 50.9456 3Z" fill="#FC7B25"/>
<path d="M506.194 464.54C503.905 463.228 504.452 447.808 504.455 444.793L504.471 420.568L504.478 334.808V154.615C504.474 123.62 504.424 92.5719 504.515 61.5744C504.525 58.7625 504.645 53.785 506.327 51.4918C506.402 52.682 506.301 53.6004 507 54.5047V463.452L506.194 464.54Z" fill="#FC7B23"/>
<path d="M46.6802 514.112C59.5369 511.836 66.9368 512.468 80.0398 512.478L114.64 512.487H240.166L383.835 512.484L428.431 512.481C436.08 512.478 447.187 512.152 454.543 512.848C456.227 514.162 456.344 514.396 458.472 514.39L457.83 515H50.3664C49.151 514.497 47.9749 514.349 46.6802 514.112Z" fill="#FC7B23"/>
<path d="M342.513 98.5793C348.19 97.9014 358.744 98.5604 364.361 99.6271C389.274 104.25 411.296 118.657 425.513 139.629C427.258 142.201 429.019 144.895 430.583 147.554C447.355 176.096 443.189 214.033 433.58 244.298C431.424 251.083 426.768 258.085 426.07 265.109C425.747 268.347 431.389 275.235 432.689 278.294C441.397 295.972 444.191 319.58 440.129 338.793C428.643 393.128 372.895 425.372 319.884 408.564C287.809 398.394 264.044 371.653 256.949 338.698C256.522 336.713 256.658 332.532 255.77 331.208C254.952 332.181 254.621 336.533 254.264 338.129C244.836 380.309 212.441 409.591 169.498 413.501C166.7 413.814 164.06 413.893 161.238 413.918C116.906 414.341 77.1795 381.703 70.2199 337.687C66.0252 311.154 69.9939 282.676 81.0149 258.229C82.2609 255.464 83.9642 251.65 84.7829 248.773L84.8967 248.361C84.3161 246.599 83.0062 243.815 82.0478 242.217C48.7353 185.851 80.4317 113.927 145.527 102.143C194.759 93.2305 240.132 124.388 253.077 172.036C253.97 175.323 254.644 179.063 255.763 182.256L255.893 182.621C256.468 178.864 256.597 175.298 257.389 171.478C265.619 131.799 302.432 101.094 342.513 98.5793Z" fill="#FEFEFE"/>
<path d="M345.711 161.762C347.036 161.591 349.776 161.486 351.044 161.655C390.709 166.933 381.375 214.768 367.745 239.455C364.076 246.106 359.707 251.021 355.959 257.028C361.044 259.367 366.835 261.481 371.033 265.264C378.41 271.917 379.381 281.566 379.826 290.877C380.288 300.617 380.803 320.835 377.759 329.763C376.422 333.686 373.912 337.472 371.115 340.5C365.675 346.384 356.847 350.285 348.834 350.493C341.106 350.689 332.701 347.001 327.16 341.716C323.939 338.644 320.848 334.751 319.296 330.535C316.071 321.796 317.523 298.809 317.295 288.408C297.315 287.798 275.792 288.198 255.648 288.197L235.025 288.138C220.061 288.045 209.484 286.535 199.107 299.27C190.361 311.301 195.827 327.425 186.847 339.314C181.756 345.623 175.458 350.294 167.359 351.444C148.405 354.14 133.773 342.465 131.098 323.74C130.334 317.907 131.181 312.177 132.127 306.47C137.18 276.02 152.368 251.472 180.105 237.164C201.412 226.171 215.058 225.656 238.533 225.661L269.248 225.674C290.292 225.681 312.896 227.523 316.897 200.376C318.424 190.008 316.492 182.376 323.791 173.472C329.591 166.393 336.753 162.9 345.711 161.762Z" fill="#FC7B23"/>
<path d="M159.102 163.327C160.41 163.147 162.33 163.117 163.623 163.271C176.773 164.853 189.758 173.218 191.903 187.232C193.626 198.49 193.633 214.026 192.415 225.486L165.751 225.504C147.799 225.675 135.353 220.353 131.801 201.641C128.009 181.67 139.452 166.72 159.102 163.327Z" fill="#FC7B23"/>
</g>
<defs>
<clipPath id="clip0_88_365">
<rect width="507" height="512" fill="white"/>
</clipPath>
</defs>
</svg>
